<svg width="542" height="225" viewBox="0 0 542 225" fill="none" xmlns="http://www.w3.org/2000/svg">
<path d="M120.87 173.909L34.2325 187.835L29.1144 155.993L96.1046 35.586L135.844 29.1982L153.024 136.076L173.264 132.823L178.382 164.664L158.142 167.918L163.617 201.98L126.346 207.971L120.87 173.909ZM115.999 142.028L106.08 80.3197L65.6455 150.121L115.999 142.028Z" fill="#210D15"/>
<path d="M448.068 177.999L361.293 164.954L366.088 133.063L466.483 38.6889L506.286 44.6726L490.193 151.72L510.465 154.767L505.671 186.659L485.399 183.611L480.27 217.728L442.94 212.116L448.068 177.999ZM453.11 146.145L462.401 84.3394L402.677 138.563L453.11 146.145Z" fill="#210D15"/>
<path d="M296.217 38.3627L276.522 34.5292C269.294 33.1223 262.295 37.8411 260.888 45.0688C258.895 55.3069 246.448 59.395 238.773 52.332L238.111 51.723C232.456 46.5189 223.643 46.9209 218.486 52.6183L205.519 66.9419C200.223 72.7926 200.496 81.783 206.139 87.3003L207.386 88.5193C214.72 95.69 211.808 108.086 202.048 111.241C194.702 113.615 190.791 121.609 193.425 128.866L201.026 149.808C203.448 156.479 210.842 159.898 217.493 157.423C226.844 153.942 236.397 162.044 234.491 171.838L234.273 172.957C232.806 180.493 237.95 187.72 245.55 188.803L268.792 192.112C275.639 193.087 282.07 188.42 283.391 181.631C285.304 171.806 297.274 167.673 304.661 174.429C309.882 179.203 317.984 178.845 322.763 173.628L337.484 157.558C342.638 151.932 342.095 143.153 336.289 138.203C328.304 131.397 330.835 118.474 340.79 115.16C348.022 112.752 351.834 104.832 349.192 97.6826L341.173 75.978C338.635 69.1101 330.925 65.6962 324.134 68.4336C314.582 72.2842 304.586 63.893 306.554 53.7834C307.936 46.6855 303.315 39.7442 296.217 38.3627Z" stroke="#B70569" stroke-width="15"/>
<path d="M271.088 67.3477L284.861 90.0974L311.522 90.607L298.634 113.866L311.522 137.126L284.861 137.635L271.088 160.385L257.314 137.635L230.654 137.126L243.541 113.866L230.654 90.607L257.314 90.0974L271.088 67.3477Z" fill="#B70569"/>
</svg>
