<svg width="181" height="216" viewBox="0 0 181 216" fill="none" xmlns="http://www.w3.org/2000/svg">
<path d="M42.1924 20.0993L64.9914 15.6615C73.3583 14.033 81.4612 19.4954 83.0898 27.8623C85.3967 39.7142 99.806 44.4466 108.691 36.2703L109.457 35.5653C116.003 29.541 126.205 30.0064 132.175 36.6018L147.186 53.183C153.317 59.9558 153 70.3633 146.468 76.7502L145.024 78.1613C136.534 86.4622 139.906 100.812 151.204 104.464C159.708 107.213 164.235 116.466 161.186 124.867L152.386 149.11C149.584 156.832 141.024 160.791 133.325 157.925C122.5 153.896 111.441 163.275 113.648 174.612L113.9 175.908C115.598 184.631 109.643 192.998 100.845 194.251L73.94 198.082C66.0134 199.21 58.5693 193.808 57.0396 185.949C54.8257 174.575 40.9684 169.791 32.4176 177.611C26.3739 183.138 16.9949 182.724 11.4626 176.685L-5.5784 158.082C-11.5447 151.569 -10.9172 141.406 -4.19498 135.676C5.04853 127.798 2.1182 112.837 -9.40558 109.001C-17.7773 106.214 -22.1904 97.0454 -19.1323 88.7688L-9.84891 63.6434C-6.91138 55.693 2.01391 51.7409 9.87497 54.9098C20.9329 59.3673 32.504 49.6535 30.226 37.9505C28.6267 29.7339 33.9759 21.6986 42.1924 20.0993Z" stroke="#B70569" stroke-width="10"/>
<path d="M71.288 53.6543L55.3438 79.9897L24.481 80.5797L39.3997 107.505L24.481 134.43L55.3438 135.02L71.288 161.356L87.2321 135.02L118.095 134.43L103.176 107.505L118.095 80.5797L87.2321 79.9897L71.288 53.6543Z" fill="#B70569"/>
</svg>
