<svg width="219" height="216" viewBox="0 0 219 216" fill="none" xmlns="http://www.w3.org/2000/svg">
<path d="M138.222 20.0993L115.423 15.6615C107.056 14.033 98.9528 19.4954 97.3243 27.8623C95.0173 39.7142 80.6081 44.4466 71.7234 36.2703L70.9573 35.5653C64.411 29.541 54.2094 30.0064 48.2389 36.6018L33.2284 53.183C27.0971 59.9558 27.4143 70.3633 33.9466 76.7502L35.3898 78.1613C43.8796 86.4622 40.5081 100.812 29.21 104.464C20.7065 107.213 16.1792 116.466 19.2282 124.867L28.0276 149.11C30.8306 156.832 39.39 160.791 47.0894 157.925C57.9142 153.896 68.9731 163.275 66.7663 174.612L66.5141 175.908C64.8161 184.631 70.7709 192.998 79.5693 194.251L106.474 198.082C114.401 199.21 121.845 193.808 123.374 185.949C125.588 174.575 139.446 169.791 147.996 177.611C154.04 183.138 163.419 182.724 168.951 176.685L185.992 158.082C191.959 151.569 191.331 141.406 184.609 135.676C175.366 127.798 178.296 112.837 189.82 109.001C198.191 106.214 202.604 97.0454 199.546 88.7688L190.263 63.6434C187.325 55.693 178.4 51.7409 170.539 54.9098C159.481 59.3673 147.91 49.6535 150.188 37.9505C151.787 29.7339 146.438 21.6986 138.222 20.0993Z" stroke="#B70569" stroke-width="10"/>
<path d="M109.126 53.6543L125.07 79.9897L155.933 80.5797L141.014 107.505L155.933 134.43L125.07 135.02L109.126 161.356L93.1819 135.02L62.3192 134.43L77.2378 107.505L62.3192 80.5797L93.1819 79.9897L109.126 53.6543Z" fill="#B70569"/>
</svg>
