<svg width="171" height="206" viewBox="0 0 171 206" fill="none" xmlns="http://www.w3.org/2000/svg">
<path d="M93.4834 9.68814L88.1249 37.2178C87.1805 42.0699 81.2813 44.0073 77.644 40.66L55.6752 20.443C53.0925 18.0662 49.0677 18.2498 46.7122 20.8519L16.001 54.7768C13.7224 57.2938 13.8402 61.1616 16.2679 63.5352L38.2005 84.9798C41.5994 88.3031 40.2496 94.0481 35.7264 95.5101L9.02753 104.14C5.6232 105.24 3.81069 108.945 5.03136 112.308L21.2746 157.059C22.4721 160.359 26.1288 162.05 29.4181 160.825L53.9323 151.701C58.5568 149.98 63.2813 153.987 62.3385 158.83L56.8368 187.096C56.146 190.645 58.5687 194.049 62.1483 194.559L110.33 201.419C113.662 201.894 116.781 199.674 117.423 196.371L122.453 170.531C123.396 165.688 129.278 163.746 132.919 167.076L152.264 184.767C154.837 187.121 158.831 186.944 161.187 184.372L192.783 149.881C195.2 147.242 194.946 143.125 192.223 140.804L170.358 122.168C166.613 118.976 167.793 112.918 172.461 111.364L199.739 102.283C203.127 101.155 204.908 97.4465 203.671 94.0975L186.717 48.2123C185.482 44.871 181.731 43.2101 178.428 44.5419L152.79 54.8766C148.143 56.75 143.268 52.7274 144.225 47.809L149.522 20.5959C150.189 17.1705 147.953 13.8532 144.527 13.1864L100.893 4.69316C97.4675 4.02642 94.1502 6.26275 93.4834 9.68814Z" stroke="#B70569" stroke-width="8"/>
</svg>
