<svg width="208" height="206" viewBox="0 0 208 206" fill="none" xmlns="http://www.w3.org/2000/svg">
<path d="M93.1631 9.27603L87.8046 36.8057C86.8602 41.6578 80.961 43.5952 77.3237 40.2479L55.3549 20.0309C52.7722 17.6541 48.7474 17.8377 46.3919 20.4398L15.6807 54.3647C13.4021 56.8817 13.5199 60.7495 15.9476 63.1231L37.8802 84.5677C41.2791 87.891 39.9293 93.636 35.4061 95.098L8.70722 103.728C5.30289 104.828 3.49038 108.533 4.71105 111.896L20.9543 156.647C22.1518 159.947 25.8085 161.638 29.0978 160.413L53.612 151.289C58.2364 149.568 62.961 153.575 62.0182 158.418L56.5165 186.684C55.8257 190.233 58.2484 193.637 61.828 194.147L110.01 201.007C113.342 201.481 116.46 199.262 117.103 195.959L122.133 170.119C123.075 165.276 128.958 163.334 132.599 166.664L151.943 184.355C154.517 186.709 158.511 186.532 160.867 183.96L192.463 149.469C194.88 146.83 194.626 142.713 191.903 140.392L170.038 121.756C166.293 118.564 167.472 112.506 172.141 110.952L199.419 101.87C202.807 100.743 204.588 97.0344 203.35 93.6854L186.397 47.8002C185.162 44.4589 181.411 42.798 178.107 44.1298L152.47 54.4645C147.822 56.3379 142.948 52.3153 143.905 47.3969L149.202 20.1838C149.869 16.7584 147.632 13.441 144.207 12.7743L100.573 4.28105C97.1472 3.61431 93.8299 5.85064 93.1631 9.27603Z" stroke="#B70569" stroke-width="8"/>
</svg>
