<svg width="25" height="37" viewBox="0 0 25 37" fill="none" xmlns="http://www.w3.org/2000/svg">
<path fill-rule="evenodd" clip-rule="evenodd" d="M1.13249 14.5309C0.790902 14.9423 0.714565 14.8327 0.266683 15.0351C0.24011 15.5724 0.349544 15.6852 0.528793 16.0135C0.24011 16.1925 -0.0217583 16.2855 0.00143294 16.7099C0.0311468 17.2704 -0.0650004 16.7962 0.173918 17.0747L0.588462 17.3965C0.479028 19.9538 0.946719 19.7282 3.28831 19.7183C5.88525 19.7084 5.56685 19.7581 6.71796 21.3402C7.44776 22.3418 8.0447 23.2938 8.66482 24.4546L10.2967 27.8577C12.0911 27.1977 15.4541 26.2954 16.0049 23.526C14.8571 22.76 13.1922 20.249 12.4493 18.9025C12.1276 19.9374 11.8191 20.8527 10.7279 21.2972C9.4741 21.8079 8.35295 20.8063 7.95507 19.9671C7.30499 18.6073 7.25861 15.0385 10.7344 15.3037C10.1839 14.7331 8.48896 12.4017 7.5171 11.3933C4.58847 12.3918 4.85372 12.8793 4.14059 14.0169C3.9913 14.2558 4.15388 14.0833 3.96472 14.2258L3.29145 12.342C5.33784 12.2227 5.06583 11.9408 6.30632 11.41C6.83706 11.1844 6.94311 11.2209 7.22503 10.9754L5.64295 9.01866C5.0593 8.30215 4.59161 7.68202 3.97463 7.03532C2.15701 8.88942 3.35764 9.21772 2.45898 9.62912C1.67628 8.64398 3.61975 7.04861 3.64971 6.69712C3.73933 5.66221 2.51213 7.07518 1.99467 8.6075C1.42407 10.2857 2.55513 11.0817 1.45403 12.1599C0.246632 13.3407 -0.317205 12.9392 0.876903 14.2031C1.04262 14.379 0.999624 14.2828 1.12573 14.528L1.13249 14.5314V14.5309Z" fill="#210D15"/>
<path fill-rule="evenodd" clip-rule="evenodd" d="M12.7919 17.2716C13.5514 17.2252 13.4685 17.182 13.9659 16.7476C14.2843 16.4691 14.5662 16.2601 14.8846 16.0246C16.0123 15.1822 15.9857 15.1423 15.1267 14.1772C13.1699 11.9816 10.5563 9.46747 8.61262 7.29498L5.35545 3.85543C4.47322 2.95 4.21111 3.55684 3.46488 4.19702C2.51307 5.01282 3.22282 5.48389 3.81975 6.21369C6.42684 9.38775 10.5029 14.2635 12.7883 17.275L12.7916 17.2716H12.7919Z" fill="#0F0F0F"/>
<path fill-rule="evenodd" clip-rule="evenodd" d="M12.7919 17.2716C13.5514 17.2252 13.4685 17.182 13.9659 16.7476C14.2843 16.4691 14.5662 16.2601 14.8846 16.0246C16.0123 15.1822 15.9857 15.1423 15.1267 14.1772C13.1699 11.9816 10.5563 9.46747 8.61262 7.29498L5.35545 3.85543C4.47322 2.95 4.21111 3.55684 3.46488 4.19702C2.51307 5.01282 3.22282 5.48389 3.81975 6.21369C6.42684 9.38775 10.5029 14.2635 12.7883 17.275L12.7916 17.2716H12.7919Z" fill="#B70569"/>
<path d="M5.40987 3.72272L3.17433 5.69277L2.96875 5.46062L4.96876 3.69277L4.83927 3.54347L5.07481 3.33789L5.40987 3.71596L5.40649 3.71934L5.40987 3.72272Z" fill="#FEFEFE"/>
<path d="M4.63174 5.079C4.3764 5.30777 4.2172 5.56988 4.15753 5.86847C4.09786 6.16029 4.15415 6.40235 4.32011 6.59151C4.48921 6.78066 4.72137 6.8669 5.01995 6.84371C5.32506 6.82052 5.6036 6.69442 5.85919 6.46903C6.11792 6.24339 6.27711 5.98153 6.33678 5.68294C6.39645 5.39112 6.34017 5.14906 6.17106 4.9599C6.00534 4.77075 5.77295 4.68789 5.4746 4.7077C5.16949 4.73089 4.89095 4.85361 4.63223 5.07924L4.63174 5.079ZM4.43268 4.85337C4.75108 4.57483 5.09943 4.42554 5.48088 4.40549C5.86885 4.38568 6.1742 4.50163 6.39959 4.75698C6.62523 5.01232 6.7047 5.33072 6.63513 5.71217C6.5687 6.08685 6.3764 6.4154 6.05801 6.69393C5.74299 6.97585 5.39464 7.12515 5.01319 7.14181C4.62836 7.16501 4.31987 7.04567 4.09448 6.79032C3.86885 6.53498 3.79275 6.21658 3.85894 5.83851C3.92537 5.46383 4.11767 5.13529 4.43268 4.85337Z" fill="#FEFEFE"/>
<path d="M6.40518 7.0663C6.14983 7.29508 5.99064 7.55719 5.93097 7.85577C5.8713 8.1476 5.92758 8.38966 6.09355 8.57881C6.26265 8.76796 6.4948 8.85421 6.79339 8.83102C7.0985 8.80782 7.37704 8.68172 7.63262 8.45633C7.89135 8.2307 8.05055 7.96883 8.11022 7.67024C8.16989 7.37842 8.1136 7.13636 7.9445 6.94721C7.77878 6.75805 7.54638 6.67519 7.24804 6.695C6.94293 6.71819 6.66439 6.84091 6.40566 7.06655L6.40518 7.0663ZM6.20612 6.84067C6.52452 6.56214 6.87287 6.41284 7.25432 6.39279C7.64229 6.37298 7.94764 6.48894 8.17303 6.74428C8.39866 6.99963 8.47814 7.31803 8.40857 7.69947C8.34213 8.07416 8.14984 8.4027 7.83144 8.68124C7.51643 8.96316 7.16807 9.11245 6.78663 9.12912C6.4018 9.15231 6.0933 9.03297 5.86791 8.77763C5.64228 8.52228 5.56619 8.20388 5.63238 7.82582C5.69881 7.45113 5.89111 7.12259 6.20612 6.84067Z" fill="#FEFEFE"/>
<path d="M8.1708 9.0497C7.91546 9.27847 7.75626 9.54058 7.69659 9.83917C7.63692 10.131 7.69321 10.3731 7.85917 10.5622C8.02827 10.7514 8.26043 10.8376 8.55902 10.8144C8.86413 10.7912 9.14266 10.6651 9.39825 10.4397C9.65698 10.2141 9.81618 9.95223 9.87585 9.65364C9.93552 9.36182 9.87923 9.11976 9.71013 8.93061C9.5444 8.74145 9.31201 8.65859 9.01366 8.6784C8.70855 8.70159 8.43002 8.82431 8.17129 9.04994L8.1708 9.0497ZM7.97175 8.82407C8.29014 8.54553 8.6385 8.39624 9.01994 8.37619C9.40791 8.35638 9.71327 8.47234 9.93866 8.72768C10.1643 8.98303 10.2438 9.30142 10.1742 9.68287C10.1078 10.0576 9.91546 10.3861 9.59707 10.6646C9.28205 10.9466 8.9337 11.0958 8.55225 11.1125C8.16742 11.1357 7.85893 11.0164 7.63354 10.761C7.40791 10.5057 7.33181 10.1873 7.398 9.80922C7.46444 9.43453 7.65673 9.10599 7.97175 8.82407Z" fill="#FEFEFE"/>
<path d="M11.1911 10.2069L8.95582 12.1803L8.75 11.945L10.7534 10.1805L10.6208 10.0312L10.8563 9.82227L11.1911 10.2003L11.188 10.2037L11.1911 10.2069Z" fill="#FEFEFE"/>
<path d="M11.6677 10.7413L9.43214 12.7113L9.22656 12.4792L11.2299 10.7113L11.0971 10.562L11.3326 10.3564L11.6677 10.7345L11.6643 10.7379L11.6677 10.7413Z" fill="#FEFEFE"/>
<path d="M10.8896 12.0976C10.6342 12.3263 10.475 12.5884 10.4153 12.887C10.3557 13.1788 10.412 13.4209 10.5779 13.6101C10.747 13.7992 10.9792 13.8855 11.2778 13.8623C11.5829 13.8391 11.8614 13.713 12.117 13.4876C12.3757 13.2619 12.5349 13.0001 12.5946 12.7015C12.6543 12.4097 12.598 12.1676 12.4289 11.9785C12.2632 11.7893 12.0308 11.7064 11.7324 11.7263C11.4273 11.7494 11.1488 11.8722 10.89 12.0978L10.8896 12.0976ZM10.6905 11.8719C11.0089 11.5934 11.3572 11.4441 11.7387 11.424C12.1267 11.4042 12.432 11.5202 12.6574 11.7755C12.883 12.0309 12.9625 12.3493 12.8929 12.7307C12.8265 13.1054 12.6342 13.434 12.3158 13.7125C12.0008 13.9944 11.6525 14.1437 11.271 14.1604C10.8862 14.1836 10.5777 14.0642 10.3523 13.8089C10.1267 13.5535 10.0506 13.2351 10.1168 12.8571C10.1832 12.4824 10.3755 12.1538 10.6905 11.8719Z" fill="#FEFEFE"/>
<path d="M12.6554 14.0839C12.4001 14.3127 12.2409 14.5748 12.1812 14.8734C12.1215 15.1652 12.1778 15.4072 12.3438 15.5964C12.5129 15.7855 12.745 15.8718 13.0436 15.8486C13.3487 15.8254 13.6273 15.6993 13.8826 15.4739C14.1414 15.2483 14.3006 14.9864 14.3602 14.6878C14.4199 14.396 14.3636 14.1539 14.1945 13.9648C14.0288 13.7756 13.7964 13.6928 13.498 13.7126C13.1929 13.7358 12.9144 13.8585 12.6557 14.0841L12.6554 14.0839ZM12.4564 13.8583C12.7748 13.5797 13.1229 13.4304 13.5043 13.4104C13.8923 13.3906 14.1976 13.5065 14.423 13.7619C14.6487 14.0172 14.7281 14.3356 14.6586 14.7171C14.5921 15.0917 14.3998 15.4203 14.0814 15.6988C13.7664 15.9807 13.4181 16.13 13.0366 16.1467C12.6518 16.1699 12.3433 16.0506 12.1179 15.7952C11.8923 15.5399 11.8162 15.2215 11.8824 14.8434C11.9488 14.4687 12.1411 14.1402 12.4561 13.8583H12.4564Z" fill="#FEFEFE"/>
<path d="M15.6833 15.2423L13.4478 17.2157L13.2422 16.9801L15.2453 15.2123L15.1127 15.0632L15.3482 14.8574L15.6833 15.2357L15.6799 15.2389L15.6833 15.2423Z" fill="#FEFEFE"/>
<path fill-rule="evenodd" clip-rule="evenodd" d="M5.61227 3.60267L12.6339 11.0654C13.2973 11.7718 14.6537 12.9229 14.9922 13.6259C15.3504 13.4169 16.4648 12.3223 16.8231 11.9477C17.5195 11.2212 18.2858 10.8797 18.3257 9.81503L8.91944 3.29756C7.8582 2.57452 7.36732 1.69229 5.60938 3.60267H5.61276H5.61227Z" fill="#0F0F0F"/>
<path fill-rule="evenodd" clip-rule="evenodd" d="M5.61227 3.60267L12.6339 11.0654C13.2973 11.7718 14.6537 12.9229 14.9922 13.6259C15.3504 13.4169 16.4648 12.3223 16.8231 11.9477C17.5195 11.2212 18.2858 10.8797 18.3257 9.81503L8.91944 3.29756C7.8582 2.57452 7.36732 1.69229 5.60938 3.60267H5.61276H5.61227Z" fill="#B70569"/>
<path d="M12.4185 5.78477L10.2027 8.30223L9.9375 8.07008L11.9276 5.81472L11.7583 5.66857L11.9907 5.40332L12.4185 5.778L12.4151 5.78139L12.4185 5.78477Z" fill="#FEFEFE"/>
<path d="M11.7397 7.41284C11.4875 7.70466 11.345 8.01968 11.3218 8.36151C11.2986 8.69657 11.3914 8.95844 11.6071 9.14422C11.8226 9.33337 12.0912 9.39642 12.4229 9.32999C12.758 9.26041 13.0532 9.08116 13.3051 8.79272C13.5605 8.50404 13.7032 8.18902 13.7296 7.84744C13.7528 7.51237 13.66 7.2505 13.4443 7.06135C13.2319 6.87219 12.9602 6.81252 12.6316 6.87896C12.2965 6.94853 12.0013 7.1244 11.7426 7.41284H11.7395H11.7397ZM11.4844 7.18721C11.7994 6.83233 12.1675 6.61661 12.5922 6.54051C13.0201 6.46417 13.3783 6.55042 13.6668 6.80262C13.9554 7.05797 14.0881 7.39955 14.0615 7.83415C14.0417 8.26198 13.8723 8.65333 13.5573 9.00821C13.2455 9.36646 12.8775 9.58195 12.4562 9.65829C12.0284 9.73801 11.6701 9.64838 11.3817 9.39618C11.0964 9.14397 10.9638 8.79924 10.987 8.36465C11.0068 7.93682 11.1761 7.54208 11.4878 7.18721H11.4844Z" fill="#FEFEFE"/>
<path d="M13.9897 9.38354C13.7375 9.67537 13.595 9.99038 13.5718 10.3322C13.5486 10.6673 13.6414 10.9291 13.8537 11.1149C14.0692 11.3041 14.3378 11.3637 14.6695 11.3007C15.0046 11.2311 15.2998 11.0519 15.5517 10.7634C15.8071 10.4747 15.9499 10.1597 15.9762 9.81814C15.9994 9.48307 15.9066 9.22121 15.6909 9.03205C15.4785 8.8429 15.2068 8.78323 14.8782 8.84966C14.5432 8.91924 14.248 9.0951 13.9892 9.38354H13.9897ZM13.7344 9.15791C14.0494 8.80304 14.4175 8.58731 14.8422 8.51121C15.2701 8.43488 15.6283 8.52112 15.9168 8.77332C16.2054 9.02867 16.3381 9.37026 16.3115 9.80485C16.2917 10.2327 16.1223 10.624 15.8073 10.9789C15.4955 11.3372 15.1273 11.5527 14.7062 11.629C14.2784 11.7087 13.9201 11.6191 13.6317 11.3669C13.3464 11.1147 13.2138 10.7699 13.237 10.3354C13.2568 9.90752 13.4261 9.51279 13.7378 9.15791H13.7344Z" fill="#FEFEFE"/>
<path d="M17.5276 10.2557L15.3087 12.77L15.0469 12.5378L17.0334 10.2823L16.8642 10.1363L17.0998 9.87109L17.5276 10.2458L17.5242 10.2525L17.5276 10.2557Z" fill="#FEFEFE"/>
<path fill-rule="evenodd" clip-rule="evenodd" d="M8.50314 2.51074C8.65896 2.71632 12.8049 5.63842 13.2095 5.84086C13.8763 6.17592 17.6176 6.84581 18.8679 7.15431C19.4018 7.28693 19.3755 7.1874 19.548 7.56571C18.8481 7.84763 15.4982 6.65352 14.3903 6.65038L18.3838 9.4099C18.8979 9.60896 19.8299 9.81116 20.407 9.75825C20.6889 9.21422 21.2395 6.21917 21.3922 5.30045C21.6077 3.99691 20.5498 4.27545 17.5415 3.6819L10.6061 2.41483C9.71706 2.25563 8.96093 1.86428 8.5 2.51098H8.50338L8.50314 2.51074Z" fill="#0F0F0F"/>
<path fill-rule="evenodd" clip-rule="evenodd" d="M8.50314 2.51074C8.65896 2.71632 12.8049 5.63842 13.2095 5.84086C13.8763 6.17592 17.6176 6.84581 18.8679 7.15431C19.4018 7.28693 19.3755 7.1874 19.548 7.56571C18.8481 7.84763 15.4982 6.65352 14.3903 6.65038L18.3838 9.4099C18.8979 9.60896 19.8299 9.81116 20.407 9.75825C20.6889 9.21422 21.2395 6.21917 21.3922 5.30045C21.6077 3.99691 20.5498 4.27545 17.5415 3.6819L10.6061 2.41483C9.71706 2.25563 8.96093 1.86428 8.5 2.51098H8.50338L8.50314 2.51074Z" fill="#B70569"/>
<path d="M11.874 3.97442C11.8044 4.29619 11.8341 4.5914 11.9568 4.85665C12.0795 5.11538 12.2585 5.27119 12.4941 5.32096C12.733 5.37411 12.9618 5.30429 13.1806 5.11876C13.4029 4.92647 13.5488 4.67088 13.6152 4.34934C13.6848 4.02756 13.6582 3.73236 13.5355 3.46711C13.4128 3.20838 13.2338 3.05256 12.9949 2.99942C12.756 2.94965 12.5306 3.01609 12.3117 3.20162C12.0894 3.39391 11.9435 3.6495 11.874 3.97103V3.97442ZM11.5887 3.91475C11.6749 3.51663 11.8607 3.205 12.146 2.97284C12.4313 2.73731 12.7364 2.65106 13.0548 2.72064C13.3766 2.79021 13.6186 2.99265 13.7812 3.32434C13.9438 3.65264 13.9834 4.01428 13.894 4.41215C13.8112 4.81027 13.6254 5.12528 13.3435 5.35744C13.0582 5.59297 12.7531 5.67922 12.4347 5.60964C12.1163 5.54007 11.8742 5.33763 11.7082 5.00594C11.5457 4.67764 11.506 4.316 11.5889 3.91813V3.91475H11.5887Z" fill="#FEFEFE"/>
<path d="M14.8677 3.15219L14.264 5.95471L13.9688 5.89166L14.5094 3.38096L14.3236 3.3411L14.3867 3.0459L14.8643 3.14881L14.8609 3.15219H14.8677Z" fill="#FEFEFE"/>
<path d="M15.0458 4.65117C14.9763 4.97295 15.006 5.26816 15.1287 5.53341C15.2514 5.79213 15.4304 5.94795 15.666 5.99772C15.9049 6.05086 16.1336 5.98105 16.3525 5.79552C16.5748 5.60322 16.7207 5.34764 16.7871 5.0261C16.8567 4.70432 16.8301 4.40911 16.7074 4.14386C16.5847 3.88514 16.4057 3.72932 16.1667 3.67617C15.9278 3.62641 15.7024 3.69284 15.4836 3.87837C15.2613 4.07067 15.1154 4.32625 15.0458 4.64779V4.65117ZM14.7605 4.5915C14.8468 4.19339 15.0325 3.88175 15.3178 3.6496C15.6031 3.41406 15.9083 3.32782 16.2267 3.3974C16.5484 3.46697 16.7905 3.66941 16.9531 4.00109C17.1157 4.32939 17.1553 4.69103 17.0659 5.08891C16.983 5.48702 16.7973 5.80204 16.5153 6.03419C16.23 6.26973 15.9249 6.35597 15.6065 6.2864C15.2881 6.21682 15.0461 6.01438 14.8801 5.6827C14.7175 5.3544 14.6779 4.99276 14.7608 4.59489V4.5915H14.7605Z" fill="#FEFEFE"/>
<path d="M17.5458 5.18535C17.4763 5.50713 17.506 5.80234 17.6287 6.06759C17.7514 6.32632 17.9304 6.48213 18.166 6.5319C18.4049 6.58504 18.6336 6.51523 18.8525 6.3297C19.0748 6.1374 19.2207 5.88182 19.2871 5.56028C19.3567 5.2385 19.3301 4.9433 19.2074 4.67804C19.0847 4.41932 18.9057 4.2635 18.6667 4.21035C18.4278 4.16059 18.2024 4.22702 17.9836 4.41255C17.7613 4.60485 17.6154 4.86043 17.5458 5.18197V5.18535ZM17.2605 5.12568C17.3468 4.72757 17.5325 4.41593 17.8178 4.18378C18.1031 3.94824 18.4083 3.862 18.7267 3.93158C19.0484 4.00115 19.2905 4.20359 19.4531 4.53527C19.6157 4.86357 19.6553 5.22521 19.5659 5.62309C19.483 6.02121 19.2973 6.33622 19.0153 6.56837C18.73 6.80391 18.4249 6.89015 18.1065 6.82058C17.7881 6.75101 17.5461 6.54857 17.3801 6.21688C17.2175 5.88858 17.1779 5.52694 17.2608 5.12907V5.12568H17.2605Z" fill="#FEFEFE"/>
<path d="M20.5393 4.36627L19.9356 7.16879L19.6406 7.1026L20.1844 4.59166L19.9955 4.55204L20.0583 4.25684L20.5361 4.35951V4.36289L20.5393 4.36627Z" fill="#FEFEFE"/>
<path d="M21.2158 4.50885L20.6121 7.31161L20.3203 7.24856L20.861 4.73448L20.6718 4.69462L20.7349 4.39941L21.2125 4.50233V4.50885H21.2158Z" fill="#FEFEFE"/>
<path fill-rule="evenodd" clip-rule="evenodd" d="M10.0625 1.82809L10.2647 1.93752C10.414 1.99719 10.4174 2.0071 10.5831 2.05372L20.4471 3.83148C20.3244 3.17149 19.7173 1.7718 19.4354 0.982332C19.0042 -0.2183 18.8716 0.0701416 16.666 0.30906C15.4752 0.438545 14.2978 0.590979 13.0873 0.707177C12.4539 0.766846 11.8734 0.823375 11.2498 0.889566C10.3478 0.989096 10.2316 0.979191 10.069 1.82495L10.0625 1.82833V1.82809Z" fill="#0F0F0F"/>
<path fill-rule="evenodd" clip-rule="evenodd" d="M10.0625 1.82809L10.2647 1.93752C10.414 1.99719 10.4174 2.0071 10.5831 2.05372L20.4471 3.83148C20.3244 3.17149 19.7173 1.7718 19.4354 0.982332C19.0042 -0.2183 18.8716 0.0701416 16.666 0.30906C15.4752 0.438545 14.2978 0.590979 13.0873 0.707177C12.4539 0.766846 11.8734 0.823375 11.2498 0.889566C10.3478 0.989096 10.2316 0.979191 10.069 1.82495L10.0625 1.82833V1.82809Z" fill="#B70569"/>
<path d="M11.3171 1.20102C11.2741 1.49285 11.3171 1.75495 11.4432 1.98373C11.5659 2.20936 11.7384 2.33522 11.9508 2.36856C12.1663 2.39827 12.3687 2.32556 12.5511 2.14631C12.7369 1.96054 12.8528 1.725 12.8927 1.43318C12.9357 1.14135 12.8961 0.879243 12.7699 0.650471C12.6472 0.424839 12.4747 0.295596 12.2593 0.26564C12.0438 0.235927 11.8447 0.308641 11.6623 0.48789C11.4766 0.673662 11.3606 0.909198 11.3174 1.20102H11.3171ZM11.0584 1.16454C11.1115 0.806287 11.2606 0.511081 11.4995 0.288832C11.7416 0.0600595 12.0071 -0.0329471 12.2989 0.0102949C12.5907 0.0532954 12.8197 0.219258 12.9821 0.507699C13.1478 0.793 13.2043 1.11454 13.1478 1.47279C13.0946 1.83443 12.9487 2.12626 12.71 2.34851C12.468 2.57728 12.2025 2.67029 11.9107 2.62704C11.622 2.58404 11.3932 2.41808 11.2275 2.12964C11.0618 1.84772 11.0052 1.5228 11.0584 1.16454Z" fill="#FEFEFE"/>
<path d="M13.9417 0.282012L13.5702 2.82266L13.3047 2.7828L13.6366 0.507644L13.4673 0.484453L13.5071 0.21582L13.9383 0.27863V0.282012H13.9417Z" fill="#FEFEFE"/>
<path d="M14.5509 0.372308L14.1793 2.90958L13.9141 2.8731L14.2457 0.594558L14.0766 0.571367L14.1165 0.302734L14.5475 0.365544V0.368926L14.5509 0.372308Z" fill="#FEFEFE"/>
<path d="M14.7937 1.69907C14.7507 1.99089 14.7937 2.253 14.9198 2.48177C15.0425 2.70741 15.215 2.83327 15.4273 2.8666C15.6428 2.89632 15.8453 2.8236 16.0276 2.64435C16.2134 2.45858 16.3294 2.22305 16.3692 1.93122C16.4122 1.6394 16.3726 1.37729 16.2465 1.14852C16.1238 0.922886 15.9513 0.793643 15.7358 0.763687C15.5203 0.733974 15.3213 0.806688 15.1389 0.985937C14.9531 1.17171 14.8372 1.40725 14.7939 1.69907H14.7937ZM14.5349 1.66259C14.5881 1.30433 14.7371 1.00913 14.9761 0.786879C15.2181 0.558106 15.4836 0.4651 15.7754 0.508342C16.0673 0.551342 16.2963 0.717305 16.4586 1.00575C16.6243 1.29105 16.6809 1.61258 16.6243 1.97084C16.5712 2.33248 16.4253 2.6243 16.1866 2.84655C15.9445 3.07533 15.679 3.16833 15.3872 3.12509C15.0985 3.08209 14.8698 2.91613 14.7041 2.62769C14.5383 2.34577 14.4818 2.02085 14.5349 1.66259Z" fill="#FEFEFE"/>
<path d="M17.418 0.780301L17.0465 3.32095L16.7812 3.28447L17.1129 1.00569L16.9438 0.982499L16.9837 0.713867L17.4147 0.776918V0.780301H17.418Z" fill="#FEFEFE"/>
<path d="M17.6687 2.1102C17.6257 2.40202 17.6687 2.66413 17.7948 2.89291C17.9175 3.11854 18.09 3.2444 18.3023 3.27774C18.5178 3.30745 18.7203 3.23474 18.9026 3.05549C19.0884 2.86972 19.2044 2.63418 19.2442 2.34236C19.2872 2.05053 19.2476 1.78842 19.1215 1.55965C18.9988 1.33402 18.8263 1.20478 18.6108 1.17482C18.3953 1.14511 18.1963 1.21782 18.0139 1.39707C17.8281 1.58284 17.7122 1.81838 17.6689 2.1102H17.6687ZM17.4099 2.07372C17.4631 1.71547 17.6121 1.42026 17.8511 1.19801C18.0931 0.969239 18.3586 0.876233 18.6504 0.919475C18.9423 0.962475 19.1713 1.12844 19.3336 1.41688C19.4993 1.70218 19.5559 2.02372 19.4993 2.38197C19.4462 2.74361 19.3003 3.03544 19.0616 3.25769C18.8195 3.48646 18.554 3.57947 18.2622 3.53622C17.9735 3.49322 17.7448 3.32726 17.5791 3.03882C17.4133 2.7569 17.3568 2.43198 17.4099 2.07372Z" fill="#FEFEFE"/>
<path d="M20.2964 1.19143L19.9249 3.73209L19.6562 3.69561L19.9913 1.41707L19.8222 1.39387L19.8618 1.125L20.293 1.18805V1.19143H20.2964Z" fill="#FEFEFE"/>
<path fill-rule="evenodd" clip-rule="evenodd" d="M11.3117 16.4088C11.8291 20.2063 8.57872 19.9544 8.6582 17.2613C8.67487 16.6776 8.7843 16.7073 8.56858 16.3691C7.54357 18.9033 8.39271 21.0026 10.1142 20.9497C11.4443 20.9067 12.2932 19.1719 11.9318 17.6297C11.8023 17.0791 11.7194 16.8668 11.3911 16.4887C11.3745 16.4689 11.338 16.4324 11.3114 16.4059V16.4092L11.3117 16.4088Z" fill="#210D15"/>
<path fill-rule="evenodd" clip-rule="evenodd" d="M9.88725 15.7314C8.42112 16.4145 9.25045 19.277 10.2588 18.7861C11.3667 18.2454 10.9951 15.2173 9.88725 15.7314Z" fill="#210D15"/>
<path fill-rule="evenodd" clip-rule="evenodd" d="M0.734617 13.4336C1.44098 13.5297 1.72967 12.9328 1.95506 12.3291C1.39122 12.5547 1.7229 12.5016 1.23854 12.8864C0.910242 13.1451 0.883669 12.9594 0.734375 13.4336H0.734617Z" fill="#EEEEF0"/>
<path fill-rule="evenodd" clip-rule="evenodd" d="M0.526728 15.1016C0.742214 15.3801 0.195045 15.0883 0.815411 15.5028C1.00771 15.6323 1.15362 15.6521 1.38915 15.735C1.22343 15.1844 1.24324 15.1446 0.526728 15.1016Z" fill="#EEEEF0"/>
<path fill-rule="evenodd" clip-rule="evenodd" d="M0.399054 16.3691C0.584826 16.5184 -0.0983502 16.7406 0.783884 16.4918C1.19529 16.3756 0.85684 16.4785 0.986083 16.2031L0.399054 16.3722V16.3688V16.3691Z" fill="#EEEEF0"/>
<path d="M7.98155 2.38578L6.14074 4.47203L5.92188 4.27949L7.57038 2.40897L7.431 2.28625L7.62667 2.06738L7.98155 2.37902L7.97816 2.3824L7.98155 2.38578Z" fill="#FEFEFE"/>
<path d="M7.41361 3.73464C7.20465 3.9767 7.08869 4.23881 7.06526 4.52073C7.04545 4.79926 7.12493 5.01499 7.30079 5.17081C7.4798 5.32662 7.70205 5.37977 7.97745 5.32348C8.25598 5.2672 8.50142 5.1179 8.71039 4.8756C8.92273 4.63668 9.03869 4.37482 9.06188 4.0929C9.08169 3.81436 9.00221 3.59863 8.82634 3.44282C8.65048 3.287 8.42509 3.23724 8.14969 3.29014C7.87115 3.34643 7.62571 3.49572 7.41337 3.73464H7.41361ZM7.20126 3.54887C7.46337 3.25366 7.76848 3.07466 8.11998 3.0116C8.47485 2.94855 8.77344 3.01813 9.00897 3.23047C9.24789 3.44282 9.35733 3.72788 9.33728 4.08613C9.32061 4.44101 9.18146 4.76617 8.91935 5.06137C8.66062 5.35658 8.35551 5.53897 8.00402 5.59864C7.64914 5.66507 7.35056 5.59212 7.11188 5.37977C6.87296 5.17081 6.76353 4.88551 6.78358 4.52411C6.80025 4.16923 6.9394 3.84093 7.20151 3.54573V3.54911L7.20126 3.54887Z" fill="#FEFEFE"/>
<path d="M9.2808 5.37038C9.07183 5.61244 8.95588 5.87455 8.93244 6.15647C8.91263 6.43501 8.99211 6.65073 9.16798 6.80655C9.34699 6.96237 9.56924 7.01551 9.84463 6.95923C10.1232 6.90294 10.3686 6.75365 10.5776 6.51135C10.7899 6.27243 10.9059 6.01056 10.9291 5.72864C10.9489 5.4501 10.8694 5.23438 10.6935 5.07856C10.5177 4.92274 10.2923 4.87298 10.0169 4.92588C9.73834 4.98217 9.4929 5.13146 9.28055 5.37038H9.2808ZM9.06845 5.18461C9.33056 4.88941 9.63567 4.7104 9.98716 4.64735C10.342 4.5843 10.6406 4.65387 10.8762 4.86621C11.1151 5.07856 11.2245 5.36362 11.2045 5.72188C11.1878 6.07675 11.0486 6.40191 10.7865 6.69712C10.5278 6.99232 10.2227 7.17471 9.87121 7.23438C9.51633 7.30081 9.21774 7.22786 8.97907 7.01551C8.74015 6.80655 8.63072 6.52125 8.65077 6.15985C8.66743 5.80498 8.80658 5.47668 9.06869 5.18147V5.18485L9.06845 5.18461Z" fill="#FEFEFE"/>
<path d="M11.7184 28.2821C11.8177 28.2531 11.8102 28.3236 11.7082 28.6306C11.987 28.5502 12.2827 28.4591 12.5953 28.3523C12.6166 28.0854 12.5663 27.8938 12.4475 27.788C12.3383 27.6907 12.1742 27.6837 11.9104 27.7931C11.6498 27.9013 11.4727 28.0062 11.3268 28.1417C11.1806 28.2772 11.0512 28.449 10.9089 28.6814C10.6987 29.0247 10.8009 29.164 10.9683 29.2554C11.1642 29.3621 11.4237 29.4105 11.3456 29.6421C11.298 29.7827 11.2444 29.8733 11.1019 29.8883C10.9253 29.9069 11.0007 29.7243 11.0917 29.5044C10.8113 29.5349 10.5591 29.554 10.3346 29.5646C10.1902 29.7967 10.0911 30.0028 10.1358 30.1509C10.1822 30.305 10.4115 30.4103 10.9209 30.3712C11.5539 30.3226 11.9513 30.1721 12.1783 29.9984C12.41 29.8214 12.4583 29.6228 12.4774 29.4049C12.5108 29.0266 12.1754 28.9561 11.886 28.8894C11.6334 28.8312 11.4155 28.7756 11.5036 28.5577C11.5826 28.363 11.6319 28.3077 11.7186 28.2823L11.7184 28.2821ZM14.0829 26.6715C14.1629 26.8261 14.2426 26.9814 14.3226 27.1363C14.4023 27.2909 14.4823 27.446 14.5613 27.601C14.3513 27.7349 14.1356 27.8624 13.9179 27.9849C13.8677 27.8168 13.8177 27.6494 13.7674 27.4817C13.7172 27.3141 13.6672 27.1462 13.6169 26.9785C13.3807 27.1145 13.1471 27.2496 12.9159 27.367C12.9236 27.7982 12.9306 28.2282 12.9379 28.6594C12.9451 29.0901 12.9524 29.5206 12.9598 29.9518C13.4186 29.8045 13.8817 29.6214 14.3438 29.4146C14.2962 29.2554 14.2482 29.0964 14.2011 28.9372C14.154 28.7783 14.1068 28.6178 14.0593 28.4594C14.3057 28.3267 14.5494 28.1874 14.7857 28.0388C14.8623 28.1854 14.9379 28.3328 15.0135 28.4801C15.0891 28.6275 15.1647 28.7741 15.2403 28.9208C15.6566 28.6509 16.0433 28.362 16.4062 28.0692C16.1257 27.7516 15.8445 27.4346 15.564 27.1164C15.2843 26.799 15.0033 26.4811 14.7229 26.1637C14.5183 26.3374 14.3032 26.5065 14.0822 26.6712L14.0829 26.6715ZM15.8469 25.6878C16.0042 25.4629 16.1426 25.2409 16.2564 25.0205C16.0933 24.9447 15.93 24.8688 15.7662 24.793C15.6805 24.9908 15.5747 25.1904 15.4374 25.381C15.2942 25.58 15.1215 25.7689 14.9386 25.9593C15.2454 26.255 15.5534 26.549 15.8604 26.8447C16.1668 27.1396 16.4748 27.4356 16.7816 27.7305C17.0959 27.4201 17.3908 27.1222 17.6447 26.8147C17.8824 26.5268 18.0815 26.2313 18.2844 25.9603C18.1214 25.8844 17.9573 25.8086 17.7943 25.7327C17.6066 26.0004 17.4044 26.2791 17.186 26.5698C17.0263 26.4647 16.8673 26.3596 16.7077 26.2545C16.8495 26.0639 16.9814 25.8774 17.1063 25.6945C16.949 25.6153 16.7927 25.5348 16.6364 25.4551C16.5267 25.625 16.4086 25.7979 16.2803 25.9728C16.1358 25.8779 15.9923 25.7822 15.8469 25.6878Z" fill="#210D15"/>
<path d="M9.48206 32.2987C9.38398 32.2943 9.34218 32.2653 9.36368 32.161C9.38543 32.0559 9.47191 31.873 9.63473 31.5558C9.79393 31.2461 9.89298 31.0616 9.97197 30.9553C10.0519 30.848 10.1094 30.8185 10.1846 30.819C10.3208 30.8198 10.2851 30.9669 10.1947 31.1734C10.3984 31.172 10.6109 31.1708 10.8375 31.1539C10.9127 30.914 10.9119 30.72 10.8414 30.5871C10.7704 30.4533 10.6402 30.3709 10.4162 30.3724C10.1425 30.3743 9.94975 30.4571 9.75431 30.64C9.56154 30.8205 9.36199 31.1022 9.10399 31.5177C8.83777 31.9465 8.68027 32.233 8.68776 32.4253C8.69549 32.6193 8.88198 32.7214 9.31005 32.7466C9.65333 32.7666 9.94081 32.6828 10.1577 32.5378C10.3747 32.3929 10.5141 32.1839 10.5892 31.944C10.3322 31.9569 10.0877 31.9568 9.8536 31.9556C9.76059 32.1692 9.6601 32.3064 9.48182 32.2987H9.48206ZM10.9878 31.6793C11.2195 31.7803 11.4654 31.8868 11.7389 31.9639C12.0258 32.0448 12.337 32.1008 12.6629 32.153C12.6617 32.004 12.6617 31.8549 12.6605 31.7056C12.2723 31.6486 11.9109 31.5769 11.576 31.4913C11.9425 31.2954 12.3041 31.0852 12.6581 30.8727C12.6581 30.7236 12.6581 30.5738 12.6581 30.4245C12.4034 30.6014 12.1435 30.7828 11.8739 30.9512C11.6077 31.1176 11.3304 31.265 11.0566 31.4133C11.0351 31.5022 11.0107 31.5909 10.988 31.679L10.9878 31.6793ZM13.9256 29.7075C13.8493 30.138 13.7604 30.5697 13.6316 30.9932C13.4995 31.4285 13.3248 31.8634 13.139 32.2924C13.4127 32.2248 13.6864 32.1373 13.9626 32.0477C14.109 31.6126 14.2442 31.1797 14.3329 30.7369C14.4187 30.3079 14.4653 29.8803 14.4984 29.4553C14.3075 29.5454 14.1164 29.6269 13.9256 29.7075ZM16.8088 29.2635C16.488 29.3285 16.1752 29.3923 15.8618 29.4418C15.5541 29.4904 15.247 29.5251 14.9453 29.5483C15.0064 29.6819 15.0675 29.8153 15.1286 29.9481C15.5347 29.8926 15.9432 29.816 16.3532 29.7259C16.0872 30.0552 15.7918 30.3779 15.471 30.6951C15.5321 30.8287 15.5932 30.962 15.6543 31.0949C15.9191 30.8258 16.1735 30.5642 16.3964 30.2849C16.6114 30.0158 16.7999 29.7387 16.9794 29.471C16.9233 29.4019 16.8649 29.3333 16.8088 29.2635ZM18.7499 27.8104C18.3017 27.5109 17.9872 27.3476 17.7227 27.3258C17.4618 27.3043 17.2487 27.4295 16.9653 27.7095C16.7827 27.8897 16.581 28.0612 16.3759 28.2395C16.6457 28.5342 16.9141 28.8294 17.183 29.1246C17.4514 29.4196 17.7215 29.7143 17.9899 30.009C18.2904 29.7902 18.5933 29.5843 18.867 29.3589C19.29 29.0106 19.4637 28.7499 19.4234 28.5144C19.3835 28.2822 19.1231 28.0595 18.675 27.76C18.7003 27.7761 18.7245 27.793 18.7501 27.8102L18.7499 27.8104ZM18.1682 28.2462C18.4952 28.503 18.6501 28.6509 18.6747 28.7736C18.6996 28.8968 18.5957 28.9973 18.401 29.1625C18.2037 28.985 18.0053 28.8072 17.808 28.6299C17.6096 28.4521 17.412 28.274 17.2149 28.0957C17.3664 27.952 17.4577 27.8762 17.5918 27.8986C17.729 27.9216 17.9099 28.0416 18.2358 28.2999C18.2143 28.2815 18.1913 28.2639 18.1684 28.2462H18.1682ZM18.545 26.7166C18.6646 26.5608 18.7779 26.4062 18.8861 26.253C18.7093 26.1709 18.5322 26.089 18.3554 26.0068C18.172 26.2914 17.9645 26.5803 17.7328 26.8758C18.1172 27.1183 18.5018 27.3604 18.8861 27.6024C19.2705 27.8445 19.6563 28.087 20.0418 28.3284C20.402 27.9609 20.7496 27.6092 21.083 27.2717C20.9062 27.1896 20.7279 27.1077 20.5511 27.0256C20.3945 27.1949 20.2341 27.3672 20.0698 27.5428C19.8879 27.4445 19.707 27.3456 19.5239 27.2473C19.6294 27.1268 19.7338 27.0082 19.8345 26.8908C19.6613 26.8074 19.4896 26.7241 19.3164 26.64C19.2272 26.7538 19.133 26.8683 19.0376 26.9843C18.8748 26.8949 18.7093 26.806 18.545 26.7166Z" fill="#210D15"/>
<path d="M11.3466 35.9057C11.3766 35.6921 11.4046 35.4791 11.4353 35.2665C11.466 35.0527 11.4952 34.8401 11.5252 34.6263C11.7556 34.6048 11.9914 34.578 12.2325 34.5398C12.2508 34.334 12.269 34.1306 12.2859 33.9248C12.0552 33.9653 11.8312 33.9905 11.6112 34.0129C11.6411 33.8001 11.6711 33.5849 11.6998 33.3711C11.9943 33.3372 12.2977 33.2906 12.6106 33.2283C12.6224 33.0232 12.6366 32.8174 12.6497 32.6125C12.0883 32.7215 11.5553 32.7855 11.0447 32.8478C10.9417 33.3624 10.8369 33.8762 10.7333 34.3891C10.6299 34.9017 10.5262 35.4158 10.4219 35.9286C10.7202 35.9313 11.029 35.9236 11.3469 35.9052L11.3466 35.9057ZM14.3052 34.1422C14.5306 34.2096 14.613 34.4043 14.6557 34.6135C14.699 34.8254 14.6999 35.0536 14.769 35.187C15.1676 35.0399 15.5715 34.8833 15.9781 34.7157C15.8634 34.5843 15.8204 34.3081 15.7266 34.0644C15.6329 33.8204 15.4855 33.6052 15.1756 33.5791C15.4648 33.3411 15.5148 33.0532 15.444 32.7142C15.3793 32.4038 15.2326 32.2195 14.9698 32.1591C14.7154 32.1004 14.3477 32.1654 13.8221 32.3226C13.5322 32.4094 13.2449 32.4869 12.9623 32.5475C12.9454 33.0725 12.9265 33.5977 12.9089 34.1233C12.8913 34.6483 12.8736 35.1742 12.8567 35.6991C13.2242 35.623 13.5967 35.5295 13.9784 35.4344C13.9692 35.238 13.9588 35.0433 13.9496 34.8471C13.9404 34.6524 13.9288 34.457 13.9196 34.2615C14.0472 34.2217 14.1762 34.1828 14.3052 34.1422ZM13.8506 32.8838C14.3052 32.7454 14.4134 32.8459 14.4499 33.1882C14.4864 33.53 14.3912 33.6474 13.8962 33.7996C13.8897 33.6465 13.8817 33.4935 13.874 33.3421C13.8663 33.1899 13.8583 33.0367 13.8506 32.8836V32.8838ZM15.6836 31.6175C15.81 32.0975 15.9351 32.5785 16.0615 33.0575C16.1878 33.5375 16.3129 34.0175 16.4378 34.4985C16.8483 34.3031 17.2522 34.0772 17.6547 33.8472C17.48 33.3984 17.3041 32.9493 17.1283 32.5014C16.9524 32.0533 16.7777 31.6037 16.6019 31.1546C16.2982 31.3215 15.9909 31.473 15.6834 31.6175H15.6836ZM19.4812 31.9668C19.3181 32.0972 19.2073 32.1472 19.0891 32.0835C18.9715 32.0202 18.8434 31.8417 18.6422 31.5204C18.4448 31.2051 18.3395 31.0085 18.3166 30.8657C18.2939 30.7239 18.3559 30.6343 18.4951 30.5328C18.7364 30.3567 18.8872 30.4533 19.0331 30.6444C19.3471 30.3796 19.6518 30.1185 19.9489 29.8564C19.7588 29.6721 19.5261 29.5882 19.2454 29.6151C18.9671 29.6416 18.6396 29.7866 18.2359 30.0726C17.6911 30.4586 17.4039 30.7485 17.3097 31.0785C17.2138 31.4136 17.3085 31.7808 17.5285 32.2738C17.7564 32.784 17.9593 33.0882 18.2958 33.1276C18.6391 33.1677 19.1287 32.944 19.8448 32.3475C20.3613 31.9173 20.6311 31.517 20.7306 31.1988C20.8263 30.8932 20.7567 30.6497 20.5664 30.4654C20.2472 30.7621 19.9201 31.0621 19.5815 31.3641C19.7327 31.5595 19.7648 31.7402 19.4812 31.9668ZM20.126 28.5565C20.341 28.9094 20.5536 29.2788 20.7461 29.6704C20.9432 30.0719 21.1162 30.4999 21.2882 30.9444C21.5658 30.628 21.8354 30.3183 22.0984 30.0163C22.0267 29.91 21.9537 29.8044 21.8822 29.6982C22.0738 29.4776 22.2443 29.2527 22.4125 29.0312C22.54 29.0614 22.669 29.0908 22.7995 29.1176C23.0053 28.8348 23.2073 28.5615 23.4027 28.2977C22.9454 28.2666 22.4939 28.2313 22.0479 28.1724C21.6042 28.1137 21.1633 28.033 20.7217 27.9424C20.5342 28.1455 20.3347 28.348 20.1265 28.5565H20.126ZM21.0744 28.6637C21.2203 28.7113 21.3674 28.7555 21.5133 28.7995C21.6578 28.843 21.8052 28.8843 21.9523 28.9222C21.8441 29.0597 21.7334 29.1981 21.6163 29.3365C21.529 29.2215 21.4414 29.1073 21.3491 28.9949C21.2578 28.8833 21.1655 28.7727 21.0742 28.6637H21.0744Z" fill="#210D15"/>
<path fill-rule="evenodd" clip-rule="evenodd" d="M7.60577 34.5435C7.62654 34.5589 7.61591 34.5423 7.63355 34.5713C7.64853 34.5961 7.64394 34.5947 7.65191 34.6254L7.79516 34.6169C7.80845 34.6106 7.7855 34.6179 7.82608 34.6048C7.83067 34.6034 7.85193 34.5976 7.85628 34.5966C7.89276 34.5884 7.90774 34.5867 7.94687 34.5841C7.93673 34.5628 8.10849 34.5841 8.13627 34.5848C8.19497 34.5536 8.12878 34.5536 8.20705 34.5418C8.36021 34.5184 8.31141 34.601 8.37494 34.6329C8.42133 34.6563 8.47592 34.637 8.52061 34.6563C8.61096 34.6954 8.53801 34.8211 8.51941 34.9032L8.47786 34.9962C8.58173 35.0025 8.73537 34.9964 8.81993 34.9832L9.20693 34.9701L9.48595 34.9617L10.0853 34.9457C10.0592 34.9769 10.0698 34.9699 10.001 34.9885C9.96789 34.9974 9.93552 35.0124 9.90798 35.0218C9.84541 35.0433 9.79106 35.058 9.72873 35.0832C9.5333 35.1617 8.72354 35.4064 8.63319 35.4608C8.61773 35.5434 8.65082 35.5627 8.63609 35.6306C8.62328 35.6898 8.3776 35.8825 8.5037 36.0857C8.5827 36.2128 8.5066 36.5145 8.59309 36.6377L8.62667 36.6962L8.9296 36.6616L8.65638 36.7698C8.63367 36.9602 8.58705 36.8493 8.69044 36.9887C8.80954 37.0167 8.74745 36.9928 8.82983 36.9578C8.91269 36.9421 8.98492 37.0518 9.23519 36.8179C9.291 36.7657 9.33231 36.7196 9.38521 36.6732C9.49972 36.5725 9.43401 36.5906 9.48112 36.4587C9.53427 36.4121 9.59248 36.4324 9.61737 36.3597C9.63283 36.3142 9.63959 36.1761 9.64177 36.1275C9.74105 36.084 9.92465 35.94 9.98746 35.8639C10.0464 35.7927 9.99084 35.7898 9.9819 35.7221C9.97562 35.6748 9.98529 35.611 9.97852 35.5511C9.87465 35.5286 9.66786 35.5815 9.54707 35.569L9.95122 35.4296C9.9604 35.1788 9.93987 35.2977 10.0558 35.1781C10.0959 35.1368 10.1003 35.131 10.1368 35.0824C10.1882 35.0138 10.2595 34.9612 10.345 34.9418L10.4211 34.8805C10.4489 34.858 10.4221 34.8757 10.4539 34.8561C10.4626 34.786 10.6001 34.6128 10.6359 34.5215L9.09629 34.5604C9.21901 34.4925 10.1399 34.3253 10.2899 34.2454C10.2781 34.1763 10.1679 34.1492 10.1609 34.0342C10.1223 34.012 10.0877 33.9125 10.0713 33.8535C10.0392 33.7386 10.0969 33.7279 10.0278 33.6313C9.91475 33.6303 8.21357 33.9705 7.88865 33.9845C7.96282 33.9347 9.17867 33.5371 9.38642 33.4595C9.43498 33.4414 9.82947 33.3057 9.87416 33.2716L9.82899 33.1351C9.74927 33.1274 9.68235 33.1305 9.60142 33.1167C9.47218 33.0948 9.51132 33.1129 9.43353 33.037C9.20669 32.9689 9.24196 33.1056 9.2364 33.1638C9.18132 33.1445 9.15837 33.1382 9.10112 33.1201C9.03251 33.0984 9.08131 33.0771 9.04942 33.0201C8.95472 33.008 8.96753 33.0264 8.88805 32.9841C8.83756 32.9573 8.79166 32.9769 8.72764 32.9885C8.63005 33.0066 8.48607 33.0421 8.39065 33.0445L8.86752 32.8474L8.86244 32.7295C8.76919 32.7312 8.69672 32.7527 8.60831 32.7445C8.28943 32.715 8.359 32.7802 8.23483 32.7942C8.08988 32.8102 8.09037 32.7464 8.00437 32.8486C7.93141 32.9353 7.94856 32.9078 7.91619 32.9215C7.82488 32.9607 7.85145 33.0107 7.80048 33.108C7.74781 33.2093 7.70216 33.1617 7.63282 33.245C7.61132 33.2709 7.58958 33.3083 7.56446 33.3259C7.51904 33.3578 7.49585 33.3346 7.46928 33.3861C7.46904 33.3863 7.39922 33.6347 7.39753 33.6446L7.79564 33.5769L7.38303 33.734C7.37265 33.789 7.36854 33.8494 7.35598 33.9026C7.32167 34.048 7.20572 33.9763 7.39342 34.2302C7.44971 34.3063 7.42845 34.4258 7.4816 34.45C7.53112 34.4727 7.92875 34.3869 8.02587 34.3862L7.59151 34.5068C7.61809 34.5411 7.60238 34.5147 7.60673 34.5425L7.60577 34.5435Z" fill="#B70569"/>
<path d="M6.95293 32.5261C7.13363 32.5473 7.15489 32.6995 6.93119 33.0353C6.49925 33.6835 6.06683 34.3319 5.63538 34.9793C5.4339 35.2813 5.24765 35.6233 5.18605 35.9164C5.12348 36.2133 5.18677 36.4643 5.4757 36.5783C5.54889 36.607 5.62185 36.6355 5.69481 36.6643C5.76776 36.693 5.84096 36.722 5.9144 36.7503C6.11418 36.4133 6.31445 36.0751 6.51471 35.7371C6.45553 35.7185 6.3961 35.6989 6.33691 35.6794C6.1811 35.6279 6.19004 35.3731 6.3804 35.0663C6.78818 34.4094 7.1962 33.7533 7.60374 33.0967C7.86995 32.6674 7.91513 32.4029 7.8586 32.2538C8.08689 32.1297 8.35117 31.8927 8.62222 31.4561C9.02952 30.8005 9.4373 30.1439 9.84483 29.4873C10.0359 29.1795 10.2787 28.9452 10.415 28.9203C10.4674 28.9107 10.5191 28.9017 10.5715 28.8921C10.7718 28.5541 10.972 28.2159 11.1725 27.8779C11.1104 27.8939 11.0486 27.9113 10.9865 27.9277C10.9249 27.9439 10.8633 27.9608 10.801 27.9775C10.5565 28.0432 10.2869 28.2683 10.0267 28.5461C9.76753 28.8227 9.51532 29.1573 9.31433 29.459C8.8824 30.1074 8.45022 30.7561 8.01852 31.4037C7.79579 31.7381 7.59142 31.8695 7.41313 31.8581C7.25949 32.0809 7.10657 32.3043 6.95293 32.5261Z" fill="#210D15"/>
<path d="M21.143 25.5226C20.9969 25.6386 21.0365 25.7613 21.3549 25.8818C21.9692 26.1145 22.5838 26.3473 23.1976 26.5795C23.4839 26.688 23.7726 26.8339 23.9364 27.0131C24.1023 27.1948 24.1436 27.4129 23.9405 27.6564C23.889 27.7181 23.8376 27.7794 23.7863 27.8408C23.7349 27.9024 23.6837 27.9637 23.6317 28.0253C23.3336 27.8903 23.0343 27.7553 22.7352 27.62C22.7787 27.5736 22.822 27.5262 22.865 27.4791C22.9783 27.3552 22.8742 27.1743 22.5954 27.0564C21.9984 26.8039 21.4015 26.5522 20.8048 26.2995C20.4149 26.1343 20.276 25.9666 20.2676 25.8265C20.0257 25.8627 19.7105 25.8367 19.3138 25.669C18.7176 25.417 18.1209 25.1648 17.5242 24.9124C17.2445 24.794 16.9485 24.758 16.8229 24.8155C16.7746 24.8375 16.727 24.8597 16.6787 24.8817C16.3796 24.7464 16.0806 24.6114 15.7812 24.4761C15.8404 24.4532 15.8994 24.4317 15.9588 24.4092C16.0175 24.387 16.0765 24.3647 16.1359 24.3425C16.3692 24.2548 16.6847 24.2693 17.0118 24.3273C17.338 24.385 17.6798 24.4891 17.9658 24.5974C18.5804 24.8303 19.195 25.0631 19.8088 25.2958C20.1255 25.4158 20.3497 25.3984 20.4973 25.2909C20.7128 25.368 20.928 25.446 21.143 25.5226Z" fill="#210D15"/>
</svg>
