<svg width="381" height="25" viewBox="0 0 381 25" fill="none" xmlns="http://www.w3.org/2000/svg">
<path opacity="0.2" d="M4.2281 13.5538C3.58115 13.7804 2.98137 13.965 2.40463 14.2091C1.61751 14.5394 0.858413 14.9206 0.0834963 15.2695C-0.150477 15.3768 -0.388045 15.4704 -0.632833 15.5368C-1.79017 15.8727 -2.57795 15.4294 -2.71256 14.2322C-2.85462 12.8692 -2.87069 11.4865 -2.94116 10.1186C-2.96049 9.71509 -2.99704 9.30161 -3.02997 8.90175C-3.05848 8.57369 -3.23912 8.4694 -3.5583 8.58519C-4.50722 8.93751 -5.46473 9.28486 -6.41865 9.64584C-7.18079 9.93289 -7.92129 10.3017 -8.68925 10.5392C-9.98036 10.9479 -10.6982 10.3834 -10.6712 9.0256C-10.6471 8.07008 -10.5257 7.12463 -10.5066 6.17776C-10.4926 5.59727 -10.5724 5.02032 -10.6114 4.4323C-10.6716 4.39754 -10.7182 4.35908 -10.7784 4.32432C-10.8986 4.39342 -11.0138 4.45386 -11.134 4.52297C-12.542 5.23343 -13.9622 5.92532 -15.3616 6.64075C-15.748 6.83316 -16.111 6.86592 -16.4395 6.56084C-16.7558 6.27435 -16.8126 5.75687 -16.5275 5.40213C-16.3196 5.14132 -16.0464 4.90663 -15.7567 4.76233C-14.3043 4.05441 -12.8568 3.35516 -11.3728 2.71167C-10.4197 2.29252 -9.54472 2.62456 -9.14559 3.58207C-8.88957 4.19151 -8.77233 4.88241 -8.73391 5.55088C-8.69106 6.29115 -8.80501 7.04476 -8.84237 7.78488C-8.85547 8.06584 -8.86 8.35174 -8.87868 8.72181C-8.55451 8.59737 -8.30831 8.50869 -8.07073 8.41504C-6.74185 7.90124 -5.43599 7.32798 -4.08048 6.88726C-2.44799 6.3641 -1.52673 6.95368 -1.29095 8.6709C-1.15684 9.59081 -1.20674 10.5314 -1.16282 11.4685C-1.13357 12.2125 -1.09074 12.9527 -1.04486 13.7871C-0.766479 13.6824 -0.588275 13.6121 -0.410092 13.5419C0.456415 13.1535 1.3193 12.7515 2.19801 12.3818C2.63737 12.1969 3.09616 12.0578 3.55354 11.941C5.17546 11.5157 5.93186 12.0331 6.04221 13.6895C6.11579 14.7937 6.10916 15.8978 6.13833 16.9995C6.143 17.2099 6.15127 17.434 6.15676 17.7026C6.98493 17.4998 7.75149 17.2846 8.52027 17.1052C9.24824 16.9369 9.97261 16.755 10.7136 16.6635C11.8276 16.5219 12.4902 17.0429 12.5624 18.1694C12.6207 19.161 12.5531 20.1722 12.5176 21.1673C12.4936 21.7651 12.4166 22.3554 12.3618 22.9469C12.2795 23.765 11.9372 24.179 11.3871 24.1384C10.8371 24.0978 10.5505 23.6208 10.6007 22.8188C10.6836 21.5626 10.7666 20.3064 10.836 19.0539C10.8472 18.8757 10.8189 18.6862 10.8084 18.4263C10.4662 18.4826 10.1748 18.5105 9.88061 18.583C8.76686 18.8633 7.64312 19.1608 6.52437 19.4497C6.29318 19.5125 6.062 19.5752 5.8322 19.6156C4.99601 19.733 4.43023 19.3025 4.38075 18.4545C4.3379 17.7142 4.37166 16.9605 4.356 16.2128C4.33675 15.4515 4.30889 14.6853 4.28103 13.9191C4.3088 13.8312 4.27357 13.7532 4.2281 13.5538Z" fill="white"/>
<path opacity="0.2" d="M58.5826 18.8828C55.0721 18.5973 51.5616 18.3302 48.0512 18.0078C43.5137 17.5933 39.0136 17.1143 34.4762 16.7182C31.7687 16.4787 31.3019 15.8248 32.3849 14.5168C33.1878 13.5404 34.3828 12.6285 35.5779 11.735C37.7999 10.0678 40.0967 8.42829 42.4121 6.80715C43.9245 5.74788 45.9225 5.56365 47.8644 6.4387C49.769 7.30453 51.655 8.24406 52.9808 9.32176C55.9684 11.7443 58.6199 14.2589 61.3461 16.7551C62.8399 18.1367 60.6926 18.8275 58.5826 18.8828ZM57.9103 17.1235C57.8169 16.9485 57.7983 16.8564 57.7049 16.7735C55.1468 14.5352 52.682 12.2693 49.9931 10.0678C48.9848 9.24807 47.4723 8.57566 46.1839 7.84798C45.7358 7.59929 45.3063 7.59929 44.8955 7.91247C41.9265 10.16 38.9576 12.3982 35.9887 14.6457C35.8206 14.7747 35.7272 14.9129 35.5032 15.1431C43.0469 15.7326 50.3106 16.709 57.9103 17.1235Z" fill="white"/>
<path opacity="0.2" d="M99.7828 13.5538C99.1358 13.7804 98.5361 13.965 97.9593 14.2091C97.1722 14.5394 96.4131 14.9206 95.6382 15.2695C95.4042 15.3768 95.1666 15.4704 94.9219 15.5368C93.7645 15.8727 92.9767 15.4294 92.8421 14.2322C92.7001 12.8692 92.684 11.4865 92.6135 10.1186C92.5942 9.71509 92.5577 9.30161 92.5247 8.90175C92.4962 8.57369 92.3156 8.4694 91.9964 8.58519C91.0475 8.93751 90.09 9.28486 89.136 9.64584C88.3739 9.93289 87.6334 10.3017 86.8654 10.5392C85.5743 10.9479 84.8565 10.3834 84.8835 9.0256C84.9075 8.07008 85.029 7.12463 85.0481 6.17776C85.0621 5.59727 84.9823 5.02032 84.9433 4.4323C84.8831 4.39754 84.8365 4.35908 84.7763 4.32432C84.6561 4.39342 84.5409 4.45386 84.4207 4.52297C83.0127 5.23343 81.5925 5.92532 80.1931 6.64075C79.8067 6.83316 79.4437 6.86592 79.1152 6.56084C78.7989 6.27435 78.7421 5.75687 79.0272 5.40213C79.2351 5.14132 79.5082 4.90663 79.798 4.76233C81.2504 4.05441 82.6979 3.35516 84.1819 2.71167C85.135 2.29252 86.01 2.62456 86.4091 3.58207C86.6651 4.19151 86.7824 4.88241 86.8208 5.55088C86.8636 6.29115 86.7497 7.04476 86.7123 7.78488C86.6992 8.06584 86.6947 8.35174 86.676 8.72181C87.0002 8.59737 87.2464 8.50869 87.484 8.41504C88.8128 7.90124 90.1187 7.32798 91.4742 6.88726C93.1067 6.3641 94.028 6.95368 94.2637 8.6709C94.3978 9.59081 94.348 10.5314 94.3919 11.4685C94.4211 12.2125 94.464 12.9527 94.5098 13.7871C94.7882 13.6824 94.9664 13.6121 95.1446 13.5419C96.0111 13.1535 96.874 12.7515 97.7527 12.3818C98.1921 12.1969 98.6508 12.0578 99.1082 11.941C100.73 11.5157 101.487 12.0331 101.597 13.6895C101.67 14.7937 101.664 15.8978 101.693 16.9995C101.698 17.2099 101.706 17.434 101.711 17.7026C102.54 17.4998 103.306 17.2846 104.075 17.1052C104.803 16.9369 105.527 16.755 106.268 16.6635C107.382 16.5219 108.045 17.0429 108.117 18.1694C108.175 19.161 108.108 20.1722 108.072 21.1673C108.048 21.7651 107.971 22.3554 107.916 22.9469C107.834 23.765 107.492 24.179 106.942 24.1384C106.392 24.0978 106.105 23.6208 106.155 22.8188C106.238 21.5626 106.321 20.3064 106.391 19.0539C106.402 18.8757 106.374 18.6862 106.363 18.4263C106.021 18.4826 105.729 18.5105 105.435 18.583C104.322 18.8633 103.198 19.1608 102.079 19.4497C101.848 19.5125 101.617 19.5752 101.387 19.6156C100.551 19.733 99.9849 19.3025 99.9354 18.4545C99.8926 17.7142 99.9263 16.9605 99.9107 16.2128C99.8914 15.4515 99.8636 14.6853 99.8357 13.9191C99.8635 13.8312 99.8283 13.7532 99.7828 13.5538Z" fill="white"/>
<path opacity="0.2" d="M154.129 18.8828C150.619 18.5973 147.108 18.3302 143.598 18.0078C139.061 17.5933 134.561 17.1143 130.023 16.7182C127.316 16.4787 126.849 15.8248 127.932 14.5168C128.735 13.5404 129.93 12.6285 131.125 11.735C133.347 10.0678 135.644 8.42829 137.959 6.80715C139.471 5.74788 141.469 5.56365 143.411 6.4387C145.316 7.30453 147.202 8.24406 148.528 9.32176C151.515 11.7443 154.167 14.2589 156.893 16.7551C158.387 18.1367 156.239 18.8275 154.129 18.8828ZM153.457 17.1235C153.364 16.9485 153.345 16.8564 153.252 16.7735C150.694 14.5352 148.229 12.2693 145.54 10.0678C144.532 9.24807 143.019 8.57566 141.731 7.84798C141.283 7.59929 140.853 7.59929 140.442 7.91247C137.473 10.16 134.504 12.3982 131.536 14.6457C131.367 14.7747 131.274 14.9129 131.05 15.1431C138.594 15.7326 145.857 16.709 153.457 17.1235Z" fill="white"/>
<path opacity="0.2" d="M195.33 13.5538C194.683 13.7804 194.083 13.965 193.506 14.2091C192.719 14.5394 191.96 14.9206 191.185 15.2695C190.951 15.3768 190.714 15.4704 190.469 15.5368C189.311 15.8727 188.524 15.4294 188.389 14.2322C188.247 12.8692 188.231 11.4865 188.16 10.1186C188.141 9.71509 188.105 9.30161 188.072 8.90175C188.043 8.57369 187.862 8.4694 187.543 8.58519C186.594 8.93751 185.637 9.28486 184.683 9.64584C183.921 9.93289 183.18 10.3017 182.412 10.5392C181.121 10.9479 180.403 10.3834 180.43 9.0256C180.454 8.07008 180.576 7.12463 180.595 6.17776C180.609 5.59727 180.529 5.02032 180.49 4.4323C180.43 4.39754 180.383 4.35908 180.323 4.32432C180.203 4.39342 180.088 4.45386 179.968 4.52297C178.56 5.23343 177.139 5.92532 175.74 6.64075C175.354 6.83316 174.991 6.86592 174.662 6.56084C174.346 6.27435 174.289 5.75687 174.574 5.40213C174.782 5.14132 175.055 4.90663 175.345 4.76233C176.797 4.05441 178.245 3.35516 179.729 2.71167C180.682 2.29252 181.557 2.62456 181.956 3.58207C182.212 4.19151 182.329 4.88241 182.368 5.55088C182.411 6.29115 182.297 7.04476 182.259 7.78488C182.246 8.06584 182.242 8.35174 182.223 8.72181C182.547 8.59737 182.793 8.50869 183.031 8.41504C184.36 7.90124 185.666 7.32798 187.021 6.88726C188.654 6.3641 189.575 6.95368 189.811 8.6709C189.945 9.59081 189.895 10.5314 189.939 11.4685C189.968 12.2125 190.011 12.9527 190.057 13.7871C190.335 13.6824 190.513 13.6121 190.691 13.5419C191.558 13.1535 192.421 12.7515 193.3 12.3818C193.739 12.1969 194.198 12.0578 194.655 11.941C196.277 11.5157 197.033 12.0331 197.144 13.6895C197.217 14.7937 197.211 15.8978 197.24 16.9995C197.245 17.2099 197.253 17.434 197.258 17.7026C198.086 17.4998 198.853 17.2846 199.622 17.1052C200.35 16.9369 201.074 16.755 201.815 16.6635C202.929 16.5219 203.592 17.0429 203.664 18.1694C203.722 19.161 203.655 20.1722 203.619 21.1673C203.595 21.7651 203.518 22.3554 203.463 22.9469C203.381 23.765 203.039 24.179 202.489 24.1384C201.939 24.0978 201.652 23.6208 201.702 22.8188C201.785 21.5626 201.868 20.3064 201.938 19.0539C201.949 18.8757 201.92 18.6862 201.91 18.4263C201.568 18.4826 201.276 18.5105 200.982 18.583C199.868 18.8633 198.745 19.1608 197.626 19.4497C197.395 19.5125 197.164 19.5752 196.934 19.6156C196.098 19.733 195.532 19.3025 195.482 18.4545C195.439 17.7142 195.473 16.9605 195.458 16.2128C195.438 15.4515 195.41 14.6853 195.383 13.9191C195.41 13.8312 195.375 13.7532 195.33 13.5538Z" fill="white"/>
<path opacity="0.2" d="M249.684 18.8828C246.174 18.5973 242.663 18.3302 239.153 18.0078C234.615 17.5933 230.115 17.1143 225.578 16.7182C222.87 16.4787 222.403 15.8248 223.486 14.5168C224.289 13.5404 225.484 12.6285 226.679 11.735C228.901 10.0678 231.198 8.42829 233.514 6.80715C235.026 5.74788 237.024 5.56365 238.966 6.4387C240.871 7.30453 242.757 8.24406 244.082 9.32176C247.07 11.7443 249.721 14.2589 252.448 16.7551C253.941 18.1367 251.794 18.8275 249.684 18.8828ZM249.012 17.1235C248.919 16.9485 248.9 16.8564 248.807 16.7735C246.248 14.5352 243.784 12.2693 241.095 10.0678C240.086 9.24807 238.574 8.57566 237.285 7.84798C236.837 7.59929 236.408 7.59929 235.997 7.91247C233.028 10.16 230.059 12.3982 227.09 14.6457C226.922 14.7747 226.829 14.9129 226.605 15.1431C234.148 15.7326 241.412 16.709 249.012 17.1235Z" fill="white"/>
<path opacity="0.2" d="M290.884 13.5538C290.237 13.7804 289.638 13.965 289.061 14.2091C288.274 14.5394 287.515 14.9206 286.74 15.2695C286.506 15.3768 286.268 15.4704 286.023 15.5368C284.866 15.8727 284.078 15.4294 283.944 14.2322C283.802 12.8692 283.786 11.4865 283.715 10.1186C283.696 9.71509 283.659 9.30161 283.626 8.90175C283.598 8.57369 283.417 8.4694 283.098 8.58519C282.149 8.93751 281.192 9.28486 280.238 9.64584C279.475 9.93289 278.735 10.3017 277.967 10.5392C276.676 10.9479 275.958 10.3834 275.985 9.0256C276.009 8.07008 276.131 7.12463 276.15 6.17776C276.164 5.59727 276.084 5.02032 276.045 4.4323C275.985 4.39754 275.938 4.35908 275.878 4.32432C275.758 4.39342 275.642 4.45386 275.522 4.52297C274.114 5.23343 272.694 5.92532 271.295 6.64075C270.908 6.83316 270.545 6.86592 270.217 6.56084C269.9 6.27435 269.844 5.75687 270.129 5.40213C270.337 5.14132 270.61 4.90663 270.9 4.76233C272.352 4.05441 273.799 3.35516 275.283 2.71167C276.237 2.29252 277.112 2.62456 277.511 3.58207C277.767 4.19151 277.884 4.88241 277.922 5.55088C277.965 6.29115 277.851 7.04476 277.814 7.78488C277.801 8.06584 277.796 8.35174 277.778 8.72181C278.102 8.59737 278.348 8.50869 278.586 8.41504C279.914 7.90124 281.22 7.32798 282.576 6.88726C284.208 6.3641 285.13 6.95368 285.365 8.6709C285.499 9.59081 285.45 10.5314 285.493 11.4685C285.523 12.2125 285.566 12.9527 285.611 13.7871C285.89 13.6824 286.068 13.6121 286.246 13.5419C287.113 13.1535 287.976 12.7515 288.854 12.3818C289.294 12.1969 289.752 12.0578 290.21 11.941C291.832 11.5157 292.588 12.0331 292.698 13.6895C292.772 14.7937 292.765 15.8978 292.795 16.9995C292.799 17.2099 292.808 17.434 292.813 17.7026C293.641 17.4998 294.408 17.2846 295.177 17.1052C295.904 16.9369 296.629 16.755 297.37 16.6635C298.484 16.5219 299.146 17.0429 299.219 18.1694C299.277 19.161 299.209 20.1722 299.174 21.1673C299.15 21.7651 299.073 22.3554 299.018 22.9469C298.936 23.765 298.593 24.179 298.043 24.1384C297.493 24.0978 297.207 23.6208 297.257 22.8188C297.34 21.5626 297.423 20.3064 297.492 19.0539C297.503 18.8757 297.475 18.6862 297.465 18.4263C297.122 18.4826 296.831 18.5105 296.537 18.583C295.423 18.8633 294.299 19.1608 293.181 19.4497C292.949 19.5125 292.718 19.5752 292.488 19.6156C291.652 19.733 291.086 19.3025 291.037 18.4545C290.994 17.7142 291.028 16.9605 291.012 16.2128C290.993 15.4515 290.965 14.6853 290.937 13.9191C290.965 13.8312 290.93 13.7532 290.884 13.5538Z" fill="white"/>
<path opacity="0.2" d="M345.231 18.8828C341.721 18.5973 338.21 18.3302 334.7 18.0078C330.162 17.5933 325.662 17.1143 321.125 16.7182C318.417 16.4787 317.95 15.8248 319.033 14.5168C319.836 13.5404 321.031 12.6285 322.226 11.735C324.448 10.0678 326.745 8.42829 329.06 6.80715C330.573 5.74788 332.571 5.56365 334.513 6.4387C336.417 7.30453 338.303 8.24406 339.629 9.32176C342.617 11.7443 345.268 14.2589 347.995 16.7551C349.488 18.1367 347.341 18.8275 345.231 18.8828ZM344.559 17.1235C344.465 16.9485 344.447 16.8564 344.353 16.7735C341.795 14.5352 339.33 12.2693 336.642 10.0678C335.633 9.24807 334.121 8.57566 332.832 7.84798C332.384 7.59929 331.955 7.59929 331.544 7.91247C328.575 10.16 325.606 12.3982 322.637 14.6457C322.469 14.7747 322.376 14.9129 322.152 15.1431C329.695 15.7326 336.959 16.709 344.559 17.1235Z" fill="white"/>
<path opacity="0.2" d="M386.431 13.5538C385.784 13.7804 385.184 13.965 384.608 14.2091C383.821 14.5394 383.062 14.9206 382.287 15.2695C382.053 15.3768 381.815 15.4704 381.57 15.5368C380.413 15.8727 379.625 15.4294 379.491 14.2322C379.349 12.8692 379.332 11.4865 379.262 10.1186C379.243 9.71509 379.206 9.30161 379.173 8.90175C379.145 8.57369 378.964 8.4694 378.645 8.58519C377.696 8.93751 376.738 9.28486 375.784 9.64584C375.022 9.93289 374.282 10.3017 373.514 10.5392C372.223 10.9479 371.505 10.3834 371.532 9.0256C371.556 8.07008 371.677 7.12463 371.697 6.17776C371.711 5.59727 371.631 5.02032 371.592 4.4323C371.532 4.39754 371.485 4.35908 371.425 4.32432C371.305 4.39342 371.189 4.45386 371.069 4.52297C369.661 5.23343 368.241 5.92532 366.841 6.64075C366.455 6.83316 366.092 6.86592 365.764 6.56084C365.447 6.27435 365.391 5.75687 365.676 5.40213C365.884 5.14132 366.157 4.90663 366.446 4.76233C367.899 4.05441 369.346 3.35516 370.83 2.71167C371.783 2.29252 372.658 2.62456 373.058 3.58207C373.314 4.19151 373.431 4.88241 373.469 5.55088C373.512 6.29115 373.398 7.04476 373.361 7.78488C373.348 8.06584 373.343 8.35174 373.324 8.72181C373.649 8.59737 373.895 8.50869 374.132 8.41504C375.461 7.90124 376.767 7.32798 378.123 6.88726C379.755 6.3641 380.676 6.95368 380.912 8.6709C381.046 9.59081 380.996 10.5314 381.04 11.4685C381.07 12.2125 381.112 12.9527 381.158 13.7871C381.437 13.6824 381.615 13.6121 381.793 13.5419C382.66 13.1535 383.522 12.7515 384.401 12.3818C384.84 12.1969 385.299 12.0578 385.757 11.941C387.379 11.5157 388.135 12.0331 388.245 13.6895C388.319 14.7937 388.312 15.8978 388.341 16.9995C388.346 17.2099 388.354 17.434 388.36 17.7026C389.188 17.4998 389.955 17.2846 390.723 17.1052C391.451 16.9369 392.176 16.755 392.917 16.6635C394.031 16.5219 394.693 17.0429 394.766 18.1694C394.824 19.161 394.756 20.1722 394.721 21.1673C394.697 21.7651 394.62 22.3554 394.565 22.9469C394.483 23.765 394.14 24.179 393.59 24.1384C393.04 24.0978 392.754 23.6208 392.804 22.8188C392.887 21.5626 392.97 20.3064 393.039 19.0539C393.05 18.8757 393.022 18.6862 393.012 18.4263C392.669 18.4826 392.378 18.5105 392.084 18.583C390.97 18.8633 389.846 19.1608 388.727 19.4497C388.496 19.5125 388.265 19.5752 388.035 19.6156C387.199 19.733 386.633 19.3025 386.584 18.4545C386.541 17.7142 386.575 16.9605 386.559 16.2128C386.54 15.4515 386.512 14.6853 386.484 13.9191C386.512 13.8312 386.477 13.7532 386.431 13.5538Z" fill="white"/>
</svg>
