<svg width="147" height="126" viewBox="0 0 147 126" fill="none" xmlns="http://www.w3.org/2000/svg">
<path opacity="0.4" d="M68.8952 58.796C66.4359 57.4931 64.832 58.3269 64.1904 60.568C62.4796 66.718 60.7688 72.868 59.4857 79.0702C58.8976 81.8846 59.0045 84.9074 59.3253 87.7739C59.8599 92.9858 63.1211 96.4777 67.8259 98.7188C74.2949 101.794 81.1382 103.409 88.2488 104.191C88.623 104.243 88.9972 104.243 89.3179 104.243C95.7335 104.817 96.4821 104.504 99.4225 98.771C103.325 91.2138 105.25 83.0833 106.48 74.8486C107.977 64.5812 109.367 54.3138 110.222 43.9943C110.757 37.8443 108.672 35.499 102.523 34.3002C95.8404 32.9973 89.0506 32.2676 82.3143 31.538C73.4394 30.5477 64.5646 29.766 55.6363 31.0168C55.5294 31.0168 55.4758 31.0168 55.3689 31.0168C49.1672 31.0168 45.2645 33.9355 43.126 39.5643C39.544 48.9456 35.8016 58.2749 31.9523 67.6041C29.9741 72.3469 27.5682 76.9854 25.5366 81.6761C22.5962 88.5557 16.7687 89.1811 10.2996 86.8358C7.30572 85.7413 4.31176 84.6468 1.58515 83.1354C0.622816 82.5621 -0.179011 80.5816 0.0348407 79.3829C0.622934 76.0994 1.26443 72.6595 2.81486 69.7409C7.35921 61.2456 11.7967 52.646 17.2499 44.724C25.9644 32.0591 35.4273 19.8634 44.623 7.5113C48.2584 2.61216 53.284 -0.150058 59.5392 0.0062974C65.1528 0.162653 70.8198 0.214727 76.38 1.10074C94.4505 3.91515 111.826 9.07487 128.453 16.4757C131.019 17.6223 133.532 18.9253 135.831 20.4368C145.721 26.8473 148.662 33.727 146.149 45.0367C142.621 60.7244 136.472 75.4739 129.255 89.8586C124.122 100.074 118.241 109.872 111.077 118.889C104.662 126.967 101.24 127.801 91.9377 123.215C74.7761 114.667 57.6679 105.911 40.5597 97.2074C36.6035 95.1748 35.4272 92.621 36.1757 87.8782C38.1538 75.8909 42.3774 64.5291 47.3495 53.4799C49.381 48.9456 51.6801 44.5155 53.979 40.0333C56.0106 36.0202 59.4856 34.0918 63.923 34.1439C74.9898 34.3002 85.2013 37.5316 94.7178 42.8999C97.7117 44.5676 98.8878 47.4341 98.9947 50.7697C99.3155 60.6723 96.8028 70.1057 93.5951 79.3829C92.4724 82.5621 91.1892 85.6892 89.9061 88.8163C88.9438 91.2137 87.1259 92.4646 84.4528 92.4646C77.3422 92.4646 70.5525 90.9532 63.9765 88.5036C61.9449 87.7739 61.6241 86.1061 62.0518 84.3341C64.0299 76.4121 66.115 68.5422 68.1466 60.6723C68.307 60.1511 68.6279 59.5257 68.8952 58.796Z" fill="#B70569"/>
</svg>
