<svg width="145" height="107" viewBox="0 0 145 107" fill="none" xmlns="http://www.w3.org/2000/svg">
<path opacity="0.4" d="M103.651 54.8908C100.477 56.0026 97.5339 56.9084 94.7042 58.1058C90.8422 59.7266 87.1178 61.5966 83.3157 63.3085C82.1677 63.8348 81.0021 64.2943 79.8011 64.6201C74.1227 66.268 70.2575 64.0931 69.5971 58.2192C68.9001 51.5316 68.8212 44.7477 68.4755 38.0364C68.3807 36.0564 68.2014 34.0277 68.0398 32.0658C67.8999 30.4562 67.0136 29.9445 65.4476 30.5126C60.7918 32.2412 56.0938 33.9455 51.4135 35.7166C47.6741 37.125 44.0409 38.9344 40.273 40.0998C33.9382 42.1048 30.4164 39.3353 30.5486 32.6734C30.6668 27.9852 31.2628 23.3465 31.3564 18.7008C31.4251 15.8526 31.0336 13.0218 30.8423 10.1368C30.5468 9.96622 30.3181 9.77755 30.0226 9.60698C29.433 9.94602 28.8679 10.2426 28.2782 10.5816C21.3699 14.0675 14.4016 17.4622 7.53551 20.9724C5.63991 21.9164 3.85885 22.0771 2.24701 20.5803C0.695068 19.1747 0.416469 16.6357 1.81525 14.8952C2.8354 13.6156 4.17554 12.4641 5.59724 11.756C12.7234 8.28272 19.8251 4.85191 27.1065 1.69468C31.7828 -0.361869 36.0757 1.26726 38.034 5.96522C39.2901 8.95539 39.8654 12.3452 40.0539 15.625C40.2641 19.2571 39.705 22.9546 39.5217 26.5859C39.4574 27.9644 39.4352 29.3672 39.3436 31.1829C40.9341 30.5723 42.142 30.1373 43.3077 29.6778C49.8277 27.1569 56.2348 24.3442 62.8855 22.1818C70.8952 19.615 75.4153 22.5077 76.5721 30.9331C77.2301 35.4466 76.9853 40.0617 77.2008 44.6593C77.3443 48.3095 77.5545 51.9416 77.7796 56.0353C79.1454 55.5215 80.0197 55.1769 80.894 54.8323C85.1454 52.9268 89.3791 50.9544 93.6904 49.1401C95.8461 48.233 98.0971 47.5508 100.341 46.9778C108.299 44.8906 112.01 47.4297 112.552 55.5564C112.913 60.9742 112.88 66.3913 113.023 71.7966C113.046 72.8291 113.087 73.9284 113.114 75.2463C117.177 74.2514 120.938 73.1953 124.71 72.3154C128.282 71.4897 131.836 70.5972 135.471 70.1482C140.937 69.4534 144.188 72.0098 144.542 77.5369C144.829 82.4019 144.497 87.3631 144.323 92.2455C144.205 95.1786 143.827 98.0748 143.558 100.977C143.154 104.991 141.475 107.022 138.776 106.823C136.077 106.624 134.671 104.283 134.917 100.349C135.324 94.1851 135.732 88.0216 136.072 81.8763C136.127 81.0019 135.988 80.0725 135.937 78.797C134.258 79.0734 132.828 79.2105 131.384 79.5662C125.92 80.9412 120.406 82.4012 114.917 83.8186C113.783 84.1263 112.649 84.4341 111.521 84.6325C107.419 85.2082 104.643 83.0959 104.4 78.9355C104.19 75.3034 104.355 71.6052 104.278 67.9369C104.184 64.2018 104.047 60.4423 103.911 56.6829C104.047 56.2519 103.874 55.869 103.651 54.8908Z" fill="#FA43AA"/>
</svg>
