<svg width="91" height="28" viewBox="0 0 91 28" fill="none" xmlns="http://www.w3.org/2000/svg">
<path opacity="0.5" d="M71.1017 10.5142C69.7705 11.5269 68.6358 12.4618 67.3701 13.3578C65.7552 14.4971 64.0748 15.6171 62.3727 16.7272C60.6051 17.8763 59.5576 17.9348 57.0261 17.0778C52.3998 15.5197 47.7516 13.9518 43.1252 12.3937C42.9725 12.3352 42.7979 12.2865 42.6451 12.2378C41.3794 11.8386 41.1612 11.858 40.572 12.5203C37.8878 15.471 35.2255 18.4314 32.5631 21.3919C32.1703 21.8204 31.843 22.2683 31.4501 22.6871C30.6864 23.4856 29.7044 23.7193 27.8494 23.4467C26.5183 23.2519 25.1653 23.0182 23.9869 22.6968C19.8188 21.538 15.7379 20.3402 11.6135 19.1521C11.3298 19.0742 11.068 18.9963 10.6315 18.8697C10.326 19.1521 9.97683 19.3858 9.80225 19.6487C8.27467 21.8593 6.72524 24.0699 5.26313 26.3C4.71757 27.1278 4.78302 27.1667 2.86264 27.157C2.7317 27.157 2.60078 27.157 2.46985 27.157C0.331241 27.118 -0.214335 26.7577 0.0693575 25.8034C0.418518 24.5471 0.593154 23.2714 0.876847 22.0054C1.29147 20.233 1.74974 18.4704 2.22983 16.698C2.68811 15.023 3.19003 13.348 3.67013 11.673C3.67013 11.6438 3.64826 11.6049 3.6919 11.5854C4.04106 11.2835 4.23749 10.8647 4.80487 10.6992C5.59048 10.4557 6.44158 10.7576 7.00897 11.0303C9.43127 12.2086 11.8536 13.3967 14.1668 14.614C16.6982 15.9482 19.2732 17.2434 22.5029 18.2464C23.5504 18.5678 23.8778 18.5678 24.3361 18.0224C25.2744 16.9512 26.1691 15.8703 26.9111 14.7698C28.9624 11.7802 30.9483 8.78073 32.9341 5.78132C33.9816 4.18424 35.0509 3.96026 38.3242 4.78802C44.2163 6.26825 49.6501 8.05035 55.0403 9.87142C56.3278 10.3096 57.6372 10.7187 58.9684 11.1179C60.0159 11.4296 60.6269 11.4101 61.2161 10.9232C62.3945 9.93959 63.5511 8.93654 64.424 7.89454C66.1043 5.88844 67.5446 3.85313 69.1158 1.82756C69.3559 1.51593 69.6396 1.20431 70.0324 0.931633C70.5562 0.561576 71.3636 0.542098 72.0619 0.853725C72.3674 0.990061 72.6074 1.15561 72.8475 1.32116C76.8846 4.15502 80.9218 6.97915 84.9153 9.82274C86.8139 11.1764 88.6252 12.5689 90.4146 13.9518C91.3967 14.7114 91.2002 15.1009 89.389 15.4515C86.2465 16.0553 83.0604 16.6006 79.8743 17.146C78.936 17.3115 78.2813 17.0875 77.7139 16.7662C75.619 15.6073 74.135 14.3121 73.0221 12.9195C72.4111 12.1307 71.7782 11.3614 71.1017 10.5142Z" fill="#B70569"/>
</svg>
