<svg width="30" height="18" viewBox="0 0 30 18" fill="none" xmlns="http://www.w3.org/2000/svg">
<path opacity="0.2" d="M21.3297 7.2257C20.6827 7.45231 20.0829 7.63692 19.5062 7.88097C18.7191 8.2113 17.96 8.59244 17.1851 8.94135C16.9511 9.04863 16.7135 9.14228 16.4687 9.20868C15.3114 9.54455 14.5236 9.10126 14.389 7.90409C14.2469 6.54104 14.2309 5.15839 14.1604 3.79052C14.1411 3.38697 14.1045 2.97349 14.0716 2.57363C14.0431 2.24557 13.8624 2.14128 13.5433 2.25706C12.5943 2.60939 11.6368 2.95674 10.6829 3.31772C9.92078 3.60477 9.18027 3.97355 8.41232 4.21108C7.1212 4.61974 6.40339 4.05527 6.43034 2.69747C6.45442 1.74195 6.5759 0.796508 6.59498 -0.150361C6.60899 -0.730855 6.52919 -1.30781 6.49019 -1.89582C6.42998 -1.93059 6.38335 -1.96904 6.32314 -2.00381C6.20296 -1.93471 6.08778 -1.87426 5.9676 -1.80516C4.55958 -1.09469 3.13935 -0.402806 1.73993 0.312625C1.35358 0.505034 0.990572 0.537793 0.662056 0.232716C0.345747 -0.0537724 0.288964 -0.57126 0.574057 -0.925998C0.781979 -1.1868 1.05512 -1.42149 1.34488 -1.5658C2.79731 -2.27371 4.24474 -2.97296 5.72879 -3.61645C6.68189 -4.03561 7.55684 -3.70357 7.95598 -2.74605C8.21199 -2.13661 8.32923 -1.44572 8.36766 -0.777248C8.41051 -0.0369793 8.29655 0.716631 8.2592 1.45676C8.24609 1.73771 8.24156 2.02362 8.22288 2.39368C8.54705 2.26924 8.79325 2.18057 9.03083 2.08692C10.3597 1.57312 11.6656 0.999857 13.0211 0.559135C14.6536 0.0359738 15.5748 0.625557 15.8106 2.34278C15.9447 3.26269 15.8948 4.20331 15.9387 5.14038C15.968 5.88434 16.0108 6.62462 16.0567 7.45896C16.3351 7.35424 16.5133 7.28402 16.6915 7.21378C17.558 6.82542 18.4209 6.42341 19.2996 6.05363C19.7389 5.86874 20.1977 5.7297 20.6551 5.61292C22.277 5.18753 23.0334 5.70502 23.1438 7.36137C23.2173 8.4656 23.2107 9.56968 23.2399 10.6714C23.2446 10.8818 23.2528 11.1058 23.2583 11.3745C24.0865 11.1717 24.8531 10.9564 25.6218 10.7771C26.3498 10.6088 27.0742 10.4269 27.8152 10.3354C28.9292 10.1938 29.5918 10.7148 29.664 11.8413C29.7223 12.8329 29.6546 13.844 29.6191 14.8392C29.5951 15.437 29.5182 16.0272 29.4633 16.6188C29.381 17.4368 29.0387 17.8509 28.4887 17.8103C27.9387 17.7697 27.6521 17.2927 27.7022 16.4907C27.7852 15.2345 27.8682 13.9783 27.9376 12.7257C27.9487 12.5475 27.9205 12.3581 27.91 12.0981C27.5678 12.1545 27.2764 12.1824 26.9822 12.2549C25.8684 12.5352 24.7447 12.8327 23.6259 13.1216C23.3947 13.1843 23.1636 13.2471 22.9338 13.2875C22.0976 13.4048 21.5318 12.9743 21.4823 12.1264C21.4395 11.3861 21.4732 10.6323 21.4576 9.88469C21.4383 9.12342 21.4105 8.35719 21.3826 7.59096C21.4104 7.50312 21.3751 7.42507 21.3297 7.2257Z" fill="white"/>
</svg>
