<svg width="35" height="14" viewBox="0 0 35 14" fill="none" xmlns="http://www.w3.org/2000/svg">
<path opacity="0.3" d="M31.1953 13.7184C27.0997 13.4171 23.0042 13.1352 18.9087 12.795C13.615 12.3576 8.36488 11.8522 3.07119 11.4342C-0.0875959 11.1815 -0.632203 10.4914 0.631311 9.11113C1.56805 8.0808 2.96226 7.1185 4.35648 6.17565C6.94886 4.41632 9.62839 2.68615 12.3297 0.975416C14.0943 -0.142395 16.4252 -0.336805 18.6908 0.586603C20.9128 1.50029 23.1131 2.49175 24.6599 3.629C28.1454 6.18538 31.2388 8.83896 34.4194 11.4731C36.1621 12.9311 33.6569 13.6601 31.1953 13.7184ZM30.411 11.8619C30.3021 11.6772 30.2803 11.58 30.1714 11.4925C27.1869 9.13056 24.3113 6.73942 21.1743 4.41632C19.9979 3.55123 18.2333 2.84166 16.7302 2.07378C16.2073 1.81133 15.7063 1.81134 15.227 2.14182C11.7633 4.51353 8.29952 6.8755 4.83575 9.24721C4.63968 9.38329 4.53074 9.52908 4.26932 9.77209C13.0703 10.3942 21.5446 11.4245 30.411 11.8619Z" fill="#F6078D"/>
</svg>
