<?xml version="1.0" encoding="UTF-8"?>
<svg id="Layer_2" data-name="Layer 2" xmlns="http://www.w3.org/2000/svg" viewBox="0 0 406.89 90.57">
  <defs>
    <style>
      .cls-1 {
        fill: #46459b;
      }
    </style>
  </defs>
  <g id="Layer_1-2" data-name="Layer 1">
    <g id="Layer_2-2" data-name="Layer 2">
      <g id="Layer_1-2" data-name="Layer 1-2">
        <path class="cls-1" d="M131.73,0H31.43C14.08,0,0,14.05,0,31.4c0,0,0,.01,0,.02v27.68c-.02,17.35,14.02,31.43,31.37,31.46,.02,0,.04,0,.05,0H108.16c17.36,0,31.43-14.07,31.43-31.43V7.86C139.58,3.52,136.06,0,131.73,0Zm-60.01,72.55h-.97l-15.53-39.53-15.81,39.53h-.97L23.61,20.3h5.37l10.67,37.66,14.98-37.66h1.09l14.8,37.66,10.91-37.66h5.32l-15.05,52.26Zm28.12,0h-4.99V33.9h4.96l.02,38.65Zm.4-47.56c-1.6,1.59-4.2,1.58-5.79-.03-.75-.76-1.18-1.79-1.19-2.86-.01-1.09,.42-2.15,1.2-2.91,1.58-1.59,4.16-1.6,5.76-.02,0,0,.01,.01,.02,.02,1.6,1.6,1.6,4.19,0,5.79,0,0,0,0,0,0Zm14.19,47.56h-4.98V33.9h4.98v38.65Zm.39-47.56c-1.55,1.59-4.1,1.62-5.69,.07-.02-.02-.05-.04-.07-.07-1.6-1.6-1.6-4.19,0-5.79,0,0,0,0,0,0,1.58-1.59,4.15-1.6,5.74-.02,0,0,.01,.01,.02,.02,1.6,1.58,1.62,4.16,.04,5.76-.01,.01-.03,.03-.04,.04Z"/>
        <path class="cls-1" d="M198.59,29.19l-7.21,6.82c-4.89-5.16-10.39-7.74-16.5-7.75-9.98-.15-18.19,7.83-18.33,17.8,0,.18,0,.35,0,.53-.06,3.34,.75,6.64,2.35,9.58,1.55,2.76,3.85,5.03,6.63,6.55,2.92,1.61,6.2,2.43,9.54,2.39,2.81,.04,5.6-.53,8.17-1.67,3.05-1.54,5.8-3.59,8.14-6.08l6.96,7.27c-3.24,3.36-7.07,6.11-11.29,8.1-3.86,1.57-7.99,2.33-12.16,2.26-8.39,0-15.25-2.66-20.6-7.99-5.35-5.32-8.02-12.14-8.02-20.46-.09-5.02,1.17-9.98,3.66-14.35,2.52-4.23,6.14-7.69,10.48-10.03,4.47-2.52,9.53-3.84,14.67-3.81,9.04,.02,17.63,3.97,23.53,10.84Z"/>
        <path class="cls-1" d="M208.25,19.71h10.91c5.97,0,10.22,.53,12.73,1.59,2.55,1.08,4.68,2.93,6.11,5.3,1.58,2.63,2.37,5.66,2.3,8.73,.12,3.16-.77,6.28-2.54,8.9-1.92,2.56-4.59,4.47-7.64,5.46l12.79,24.01h-11.3l-12.14-22.91h-.94v22.91h-10.28V19.71Zm10.28,21.1h3.22c3.27,0,5.52-.44,6.75-1.29,1.31-1.02,2-2.63,1.84-4.28,.06-2.21-1.31-4.2-3.38-4.95-1.84-.47-3.74-.66-5.64-.57h-2.82l.02,11.09Z"/>
        <path class="cls-1" d="M251.19,19.71h29.46v10.06h-19.26v9.76h19.27v9.88h-19.27v14.19h19.27v10.09h-29.46V19.71Z"/>
        <path class="cls-1" d="M306.7,19.71h10.42l20.73,53.98h-10.68l-4.19-11.12h-22.03l-4.36,11.12h-10.7l20.82-53.98Zm5.27,14.32l-7.25,18.55h14.45l-7.2-18.55Z"/>
        <path class="cls-1" d="M340.51,19.71h29.83v10.13h-9.82v43.85h-10.42V29.83h-9.58v-10.13Z"/>
        <path class="cls-1" d="M377.42,19.71h29.46v10.06h-19.26v9.76h19.27v9.88h-19.27v14.19h19.27v10.09h-29.46V19.71Z"/>
      </g>
    </g>
  </g>
</svg>