<svg width="43" height="57" viewBox="0 0 43 57" fill="none" xmlns="http://www.w3.org/2000/svg">
<rect x="1.25" y="1.25" width="40.5" height="54.5" rx="15.75" stroke="#B70569" stroke-width="2.5"/>
<path d="M25.3276 39.2967C24.2981 41.0064 24.0191 41.7803 23 43.5C20.4522 31.6022 20.7684 20.4801 21.1531 8.35235C21.1635 7.87244 18.6929 7.89243 18.6513 8.35235C17.6426 19.3903 18.8136 31.6019 20.4983 42.4999C19.7496 41.2201 18.4999 38.9999 17.4999 37.4999C16.9904 36.64 15.7292 37.1171 16.0411 38.0869C17.1539 41.5963 18.6929 44.5957 20.9599 47.5752C21.3447 48.0851 22.1766 48.1951 22.5406 47.5752C23.9861 45.1057 25.442 42.6461 26.877 40.1666C27.4386 39.1967 25.8995 38.3269 25.3276 39.2967Z" fill="#B70569" stroke="#B70569"/>
</svg>
