<svg width="37" height="36" viewBox="0 0 37 36" fill="none" xmlns="http://www.w3.org/2000/svg">
<g clip-path="url(#clip0_3386_8025)">
<path d="M9.80136 0.000976562C9.09126 0.000976562 8.51562 0.576609 8.51562 1.28671V3.85812H11.087V1.28671C11.087 0.576609 10.5114 0.000976562 9.80136 0.000976562Z" fill="#B70569"/>
<path d="M27.7936 0.000976562C27.0834 0.000976562 26.5078 0.576609 26.5078 1.28671V3.85812H29.0792V1.28671C29.0793 0.576609 28.5037 0.000976562 27.7936 0.000976562Z" fill="#B70569"/>
<path d="M32.9397 3.8584H29.0826V9.00128C29.0826 9.71138 28.507 10.287 27.7969 10.287C27.0867 10.287 26.5111 9.71138 26.5111 9.00128V3.8584H11.0826V9.00128C11.0826 9.71138 10.5069 10.287 9.79682 10.287C9.08671 10.287 8.51108 9.71138 8.51108 9.00128V3.8584H4.65402C2.52377 3.8584 0.796875 5.5853 0.796875 7.71554V32.1441C0.796875 34.2744 2.52377 36.0013 4.65402 36.0013H32.9397C35.07 36.0013 36.7969 34.2744 36.7969 32.1441V7.71554C36.7969 5.5853 35.07 3.8584 32.9397 3.8584ZM34.2254 32.1441C34.2254 32.8542 33.6498 33.4299 32.9397 33.4299H4.65402C3.94391 33.4299 3.36828 32.8542 3.36828 32.1441V15.4298H34.2254V32.1441Z" fill="#B70569"/>
<path d="M27.4211 18.3789C26.9191 17.8765 26.1048 17.8763 25.6024 18.3783L16.2257 27.755L11.9919 23.5211C11.4894 23.0191 10.6752 23.0194 10.1732 23.5218C9.67117 24.0242 9.67147 24.8384 10.1739 25.3405L15.3168 30.4833C15.8189 30.9853 16.6327 30.9853 17.1347 30.4833L27.4205 20.1976C27.9228 19.6956 27.9231 18.8813 27.4211 18.3789Z" fill="#B70569"/>
</g>
<defs>
<clipPath id="clip0_3386_8025">
<rect width="36" height="36" fill="white" transform="translate(0.796875)"/>
</clipPath>
</defs>
</svg>
