<svg width="31" height="36" viewBox="0 0 31 36" fill="none" xmlns="http://www.w3.org/2000/svg">
<path d="M26.4041 4.40364C25.0153 2.98985 23.3602 1.86526 21.5343 1.09485C19.7084 0.32445 17.7479 -0.0764995 15.7662 -0.0848285C13.7844 -0.0931574 11.8206 0.291299 9.98833 1.04633C8.15602 1.80136 6.49148 2.91199 5.0909 4.31406C3.69032 5.71613 2.58145 7.38185 1.82836 9.21496C1.07528 11.0481 0.692902 13.0122 0.703333 14.994C0.713764 16.9757 1.11679 18.9358 1.88913 20.7609C2.66147 22.5859 3.78782 24.2399 5.20308 25.6271L15.7976 35.9906L26.4041 25.6151C29.2166 22.8022 30.7966 18.9872 30.7966 15.0094C30.7966 11.0316 29.2166 7.21662 26.4041 4.40364ZM23.2976 20.9996H8.29758V14.1131C8.29932 13.5369 8.43313 12.9688 8.68875 12.4523C8.94436 11.9359 9.31496 11.485 9.77208 11.1341L13.5221 8.26914C14.1766 7.77145 14.9761 7.50197 15.7983 7.50197C16.6205 7.50197 17.4201 7.77145 18.0746 8.26914L21.8246 11.1341C22.2813 11.4853 22.6515 11.9363 22.9068 12.4527C23.1621 12.9691 23.2958 13.5371 23.2976 14.1131V20.9996ZM19.9976 13.5191C20.0907 13.589 20.1663 13.6796 20.2184 13.7837C20.2705 13.8879 20.2976 14.0027 20.2976 14.1191V17.9996H17.2976V14.9996H14.2976V17.9996H11.2976V14.1131C11.2976 13.9967 11.3247 13.8819 11.3768 13.7777C11.4288 13.6736 11.5044 13.583 11.5976 13.5131L15.3476 10.6496C15.4785 10.5494 15.6387 10.4951 15.8036 10.4951C15.9684 10.4951 16.1287 10.5494 16.2596 10.6496L19.9976 13.5191Z" fill="#B70569"/>
</svg>
